<?xml version="1.0" encoding="UTF-8"?>
<!DOCTYPE svg PUBLIC "-//W3C//DTD SVG 1.1//EN" "http://www.w3.org/Graphics/SVG/1.1/DTD/svg11.dtd">
<!-- Creator: CorelDRAW -->
<svg xmlns="http://www.w3.org/2000/svg" xml:space="preserve" width="11.6929in" height="8.26772in" version="1.1" style="shape-rendering:geometricPrecision; text-rendering:geometricPrecision; image-rendering:optimizeQuality; fill-rule:evenodd; clip-rule:evenodd"
viewBox="0 0 11692.91 8267.72"
 xmlns:xlink="http://www.w3.org/1999/xlink"
 xmlns:xodm="http://www.corel.com/coreldraw/odm/2003">
 <defs>
  <style type="text/css">
   <![CDATA[
    .fil0 {fill:#FEFEFE}
   ]]>
  </style>
 </defs>
 <g id="Layer_x0020_1">
  <metadata id="CorelCorpID_0Corel-Layer"/>
  <g>
   <path class="fil0" d="M1725.82 3265.78c7.18,-20.04 4.78,-41.8 10.39,-62.21 2.47,-12.49 4.79,-25.05 8,-37.39 1.42,-6.96 2.91,-13.83 4.33,-20.71 8.6,-32.23 14.51,-66.1 33.5,-94.36 27.22,-52.41 72.9,-91.3 117.24,-128.68 -12.56,4.26 -24.9,9.35 -37.01,14.8 -21.83,7.63 -43.96,14.28 -66.4,19.96 -24.67,6.58 -50.47,5.53 -75.44,2.02 -1.87,0 -5.61,0.07 -7.48,0.15 -14.96,-7.85 -30.28,-14.96 -45.61,-21.83 -31.26,-20.41 -68.49,-32.52 -95.19,-59.07 9.87,1.57 19.67,3.37 29.39,5.46 9.94,2.91 20.04,5.31 29.98,8.45 6.96,1.42 13.91,2.92 20.86,4.48 12.04,2.84 24.38,3.67 36.79,4.11 15.18,-5.31 31.1,-7.85 46.73,-11.52 33.28,-7.63 68.57,-14.88 95.26,-37.61 38.96,-30.8 81.2,-57.72 115.75,-93.76 62.06,-52.26 126.67,-102.81 199.64,-139 19.22,-6.88 39.26,-10.39 59.74,-9.27 15.93,16.3 32.22,32.3 48.15,48.6 0.67,3.52 1.94,10.62 2.62,14.2 6.95,15.18 8.15,32.83 -1.05,47.48 -1.65,19.59 -1.57,39.41 1.8,58.85 5.91,-18.54 10.61,-37.46 13.98,-56.68 2.54,0.07 7.48,0.22 9.94,0.22 36.49,80.6 111.94,132.57 160.31,205.02 0.07,4.86 0.15,14.66 0.15,19.59 -19.67,-4.63 -39.48,-8.37 -58.85,-14.06 -3.51,3.66 -6.95,7.33 -10.39,11.06 7.93,3.74 15.78,7.56 23.7,11.37 3.37,18.02 -7.93,46.36 14.06,54.74 0.45,-5.69 1.34,-17.13 1.8,-22.81 9.87,-2.84 21.68,-17.42 30.95,-5.83 38.96,35.3 43.22,93.84 30.96,142.14 -2.77,19.74 -6.8,39.26 -11.67,58.62 -17.8,62.73 -56.98,116.05 -90.47,171 31.25,-19.44 57.13,-45.91 86.13,-68.42 52.49,-55.03 115.6,-98.48 168.61,-153.06 31.63,-30.13 70.28,-51.22 103.41,-79.41 4.86,-0.9 14.73,-2.62 19.59,-3.52 -6.58,9.5 -13.16,18.99 -19.59,28.64 -5.46,14.73 -10.24,29.61 -14.28,44.79 -1.8,4.71 -5.38,13.98 -7.18,18.62l6.5 -0.07c33.8,-74.77 97.13,-128.98 155.15,-184.54 29.98,-22.73 55.93,-51.22 90.47,-67.59 35.96,-20.93 70.96,-44.49 97.2,-77.39 -17.5,4.48 -35.07,8.6 -52.34,13.83 -29.83,1.94 -60.19,4.79 -89.57,-2.02 -7.63,-3.29 -15.1,-6.58 -22.58,-9.8 -3.74,-0.52 -11.07,-1.57 -14.8,-2.09 -34.02,-21.09 -69.76,-40.45 -98.7,-68.64 -12.71,-12.79 -26.69,-24.22 -41.65,-34.32 9.5,-3.89 19.15,-7.7 29.01,-10.69 13.69,-7.25 26.77,-15.63 40.15,-23.33l0.82 -5.68c-28.56,1.87 -57.2,1.94 -85.76,0.74 -19.89,-11.36 -41.72,-19.06 -60.94,-31.48 -24.08,-19.59 -45.69,-42.39 -63.11,-68.04 -0.07,-3.89 -0.15,-11.67 -0.15,-15.55 -58.99,-38.13 -108.04,-89.06 -161.43,-134.07 -4.71,-7.33 -8.45,-15.18 -12.41,-22.88 18.77,-5.76 36.19,-22.81 57.05,-15.26 -4.11,-9.87 -8.22,-19.74 -12.41,-29.54 -1.94,3.07 -5.83,9.12 -7.85,12.19 -2.77,-1.94 -8.3,-5.91 -11.07,-7.85 -14.2,-0.22 -28.34,-0.6 -42.47,-1.12 -42.62,-21.68 -76.12,-57.5 -95.56,-101.17 -3.81,-7.25 -7.63,-14.43 -11.59,-21.61 -4.19,-14.35 -7.93,-28.94 -8.97,-43.89 14.21,-32.22 28.71,-64.68 51.52,-91.89 0.75,-9.42 1.57,-18.84 2.39,-28.26 5.31,-12.34 10.24,-24.75 15.33,-37.16 -16.38,26.32 -40.38,45.61 -65.95,62.36 -2.62,-2.32 -7.85,-6.88 -10.47,-9.2 0.75,-2.09 2.32,-6.28 3.14,-8.37 -9.27,-53.02 1.94,-106.25 8.97,-158.74 8.75,-49.72 29.46,-96.08 49.2,-142.14 33.95,-58.92 78.51,-112.01 133.24,-152.54 16.83,-12.26 34.47,-23.7 48.9,-38.96 -35.52,10.1 -64.83,33.57 -98.18,48.38 -34.47,16.68 -64.9,40.15 -96.98,60.79 -76.72,48.37 -143.64,110.36 -207.19,174.59 -60.49,65.28 -112.53,137.73 -160.83,212.28 -14.5,25.12 -41.5,33.57 -69.09,29.61 -0.07,-13.83 -0.07,-27.59 -0.23,-41.35 -14.06,13.16 -26.92,27.67 -37.31,43.89 10.69,59 -20.41,112.53 -42.54,164.72 -26.32,48.08 -62.81,92.72 -109.54,122.11 -13.61,3.89 -26.84,9.12 -39.33,15.78 -15.93,0.97 -31.85,1.42 -47.78,1.5 0.07,-9.5 0.15,-19 0.22,-28.49 5.98,-5.76 11.96,-11.44 17.87,-17.2 -6.13,0.15 -18.54,0.45 -24.68,0.6 -0.52,15.18 -0.89,30.36 -1.42,45.54 19.59,12.71 43.52,13.38 64.53,22.5 -36.71,26.09 -69.61,60.04 -113.28,74.32 -9.05,-13.08 -16.15,-27.29 -23.55,-41.27 -1.87,-3.89 -5.76,-11.67 -7.63,-15.56 -6.35,-37.01 -15.33,-75.52 -4.78,-112.53 7.18,-19.67 13.76,-39.48 19.96,-59.44 1.87,-3.89 5.53,-11.66 7.4,-15.55 19.14,-39.63 44.79,-78.59 83.52,-101.47 -3.89,-2.99 -7.78,-5.83 -11.59,-8.67 -19.59,18.62 -42.77,32.6 -63.56,49.5 -50.85,45.31 -97.65,96.76 -127.63,158.44 -4.49,12.86 -9.65,25.5 -15.26,37.91 -0.97,3.52 -2.99,10.39 -4.04,13.83 -9.27,39.41 -24.07,77.46 -30.43,117.54 -17.35,-5.46 -34.84,-10.47 -52.49,-14.66 -36.56,8.75 -67.14,33.8 -81.8,68.64 8.22,-8 15.63,-16.9 24.6,-24.07 13.68,-12.19 33.12,-7.48 49.8,-9.42 11.59,12.78 22.66,26.09 31.7,40.83 3.59,25.65 12.49,52.64 -3.37,76.26 -27.67,38.66 -58.99,74.62 -91.22,109.54 -90.17,79.26 -178.03,166.14 -289.89,214.37 -9.35,0.82 -18.69,1.72 -27.96,2.77 -17.42,8.3 -37.24,7.63 -55.03,0.97 -17.2,-3.14 -34.17,-7.03 -51.15,-10.91 15.7,20.04 36.64,34.39 59.74,44.63 5.76,0.75 17.27,2.25 23.03,3 -41.5,38.95 -93.99,63.56 -142.06,93.24 -31.03,14.81 -59.44,34.47 -90.7,48.98 -27.14,13.54 -54.28,27.07 -81.35,40.68 -31.41,17.12 -64.68,30.36 -97.43,44.64 -3.89,1.87 -11.67,5.53 -15.56,7.4 -35.81,15.63 -73.13,27.74 -107.9,45.76 26.4,-5.68 52.57,-11.96 78.66,-18.76 19.74,-3.22 39.26,-7.85 58.85,-12.11 15.33,-3.89 30.96,-6.51 46.28,-10.24 34.62,-5.16 68.94,-12.04 102.96,-20.04 35.52,-7.63 72.45,-5.46 108.27,-11.52 41.65,0.97 85.02,-6.65 125.54,5.16 28.11,0.52 56.3,3.67 82.47,14.81 1.12,-0.97 3.44,-2.99 4.56,-3.96 27.81,10.84 56.38,19.29 84.27,29.83 17.27,8.74 34.54,17.34 52.04,25.72 25.87,18.17 51.07,37.31 75.82,56.98 39.03,37.09 69.09,82.4 92.87,130.48 -2.69,10.54 -5.83,21.01 -8.67,31.63 -28.26,12.11 -58.77,-1.12 -85.17,-12.04 -22.5,-11.89 -45.16,-23.4 -68.11,-34.24 -30.81,-13.76 -54.81,-42.54 -89.65,-45.61 68.79,50.17 131.97,110.36 174.52,184.91 10.92,23.4 23.93,45.76 37.98,67.44 10.92,34.85 2.32,71.33 -3.89,106.18 1.43,57.35 7.48,115.67 -7.4,171.97 -8.23,62.59 -31.11,121.8 -56,179.31 21.68,-21.54 35.74,-49.06 51.52,-74.93 19.07,-33.35 35.74,-67.96 54.51,-101.46 18.47,-28.41 32.83,-62.36 64.53,-78.81 6.8,28.26 12.41,56.83 16.37,85.61 3.14,24.15 -3.21,49.87 7.26,72.83 2.46,37.23 4.26,75.44 -7.26,111.48 -12.11,24.67 -28.56,46.81 -48.82,65.43 -17.87,16 -30.51,37.46 -50.47,51.14 4.26,3.07 8.52,6.2 12.86,9.35 3.89,-4.41 11.67,-13.16 15.48,-17.57 3.74,-0.67 11.07,-1.87 14.73,-2.54 11.74,-3.59 23.78,-5.61 35.89,-7.25 -0.75,14.8 -0.97,30.06 -6.28,44.19 -1.27,6.95 -2.54,13.91 -3.74,20.93 -25.2,78.06 -58.92,170.11 -144.76,198.07 -27.67,1.57 -55.93,1.94 -82.02,-8.3 -7.25,-3.96 -14.51,-7.78 -21.83,-11.44 -68.86,-38.5 -115.74,-106.32 -144.61,-178.33 -0.9,-3.51 -2.69,-10.61 -3.59,-14.2 -19.07,-51.74 -11.59,-107.22 -13.16,-161.06 -1.42,-26.17 8.37,-50.7 16.6,-74.92l-7.33 0c-3.59,11.14 -7.26,22.36 -10.69,33.65 -3.74,7.33 -7.48,14.73 -11.22,22.13 -2.47,7.63 -5.01,15.26 -7.63,22.88 -10.54,40.23 -19.29,81.57 -17.05,123.52 1.72,33.65 -3.89,68.12 4.63,101.24 4.33,14.58 8.6,29.31 12.71,44.04 2.47,7.48 4.94,14.95 7.33,22.58 1.94,3.81 5.91,11.51 7.85,15.33 6.13,14.58 11.89,29.46 17.87,44.19 4.93,9.87 9.94,19.81 14.8,29.91 45.02,84.64 115.22,157.17 200.61,201.36 16,7.1 33.05,11.52 49.13,18.47 20.71,13.91 36.56,34.47 46.66,57.27 22.73,43.44 40.37,90.85 73.57,127.79 -6.5,-15.4 -14.06,-30.36 -21.61,-45.31 -13.08,-28.94 -20.19,-59.82 -17.72,-91.67 8.07,-6.35 16.23,-12.63 24.38,-18.77 58.24,32 107.37,77.02 157.84,119.56 50.47,51.44 102.74,101.09 152.08,153.73 32.38,35.37 61.91,73.28 93.91,109.02 49.13,62.96 91.82,130.55 132.57,199.19 -8.15,-25.72 -16.3,-51.44 -27.44,-75.97 -0.9,-3.36 -2.69,-10.09 -3.59,-13.53 -2.77,-7.63 -5.38,-15.33 -8,-22.95 -7.25,-17.65 -14.36,-35.37 -21.98,-52.79 -12.78,-27.22 -25.27,-54.58 -37.54,-81.95 -10.17,-17.42 -20.41,-34.77 -29.91,-52.49 -15.33,-24.75 -29.98,-49.94 -45.01,-74.77 -8.9,-17.57 -17.8,-35.07 -26.99,-52.42 -0.3,-4.04 -0.82,-12.19 -1.12,-16.22 6.28,-2.92 12.49,-5.76 18.77,-8.52 28.41,11.06 55.85,24.45 83.22,38.06 17.57,9.65 34.7,20.19 52.19,30.13 24.9,14.81 48.98,30.96 72.23,48.3 41.27,28.04 70.96,69.39 98.02,110.59 3.37,7.33 6.8,14.73 10.32,22.13 8.3,21.39 16.89,42.92 18.84,66.02 2.69,-2.77 8,-8.22 10.69,-10.99 -8.97,-29.98 -4.48,-61.69 -4.11,-92.34 42.47,35.37 89.43,66.92 121.28,113.13 67.37,73.5 128.46,152.91 178.78,239.04 7.25,12.56 15.1,24.75 22.8,37.09 13.46,27.22 27.22,54.29 40.38,81.65 12.86,35.37 29.09,69.46 42.69,104.61 2.92,13.16 5.46,26.39 8.67,39.7 3.37,-16.15 6.28,-33.5 -3.06,-48.23 -1.27,-22.28 0.37,-45.02 -5.69,-66.7 -4.33,-44.19 -3.14,-88.68 -2.46,-133.02 2.76,-5.54 8.3,-16.6 11.07,-22.13 77.91,79.86 158.29,160.69 211.08,260.13 2.24,7.85 4.63,15.63 7.18,23.48 0.97,3.44 2.77,10.32 3.67,13.76 2.84,7.48 5.61,15.03 8.37,22.73 3.51,13.01 6.65,26.24 10.69,39.26 2.02,33.12 1.8,66.32 1.65,99.59l5.61 -0.22c11.29,-23.03 13.53,-62.81 43.96,-67.6 8.75,13.24 15.4,27.74 23.03,41.65 16.45,40.15 32.82,80.38 52.04,119.33 4.64,12.94 9.94,25.65 15.85,38.13 0.59,3.52 1.87,10.54 2.46,14.06 2.39,3.81 7.18,11.44 9.57,15.25 5.98,14.28 10.84,29.01 14.66,44.19 6.88,17.43 12.26,35.44 18.02,53.31 0.89,3.59 2.76,10.62 3.67,14.2 15.25,44.12 24.6,89.95 33.05,135.79 4.19,25.35 8.22,50.84 15.55,75.52 1.12,13.98 2.02,28.04 3.37,42.09 10.39,28.64 4.04,59.97 10.84,89.5 8.6,45.31 -4.41,92.49 7.33,137.2 2.09,-15.03 3.07,-30.06 4.49,-45.01 10.76,-60.49 23.33,-121.8 20.86,-183.64 2.24,-3.89 6.73,-11.66 8.97,-15.63 -1.87,-2.76 -5.61,-8.45 -7.48,-11.22 4.86,-15.63 6.95,-31.93 6.5,-48.15 -0.75,-50.17 -1.12,-100.35 -0.52,-150.44 -0.22,-16.68 1.27,-34.1 -6.28,-49.43 -1.5,-21.61 -1.65,-43.22 -3.67,-64.68 -5.68,-16.83 -5.53,-34.7 -7.03,-52.12 -5.46,-14.5 -6.13,-30.06 -7.78,-45.24 -5.91,-24.97 -8.97,-50.39 -15.25,-75.22 -6.28,-25.27 -10.69,-51 -17.5,-76.12 -6.58,-35.14 -17.28,-69.39 -27.14,-103.71 -10.62,-32.82 -20.11,-66.02 -33.5,-97.8 -0.82,-3.52 -2.54,-10.47 -3.44,-13.98 -2.84,-7.7 -5.61,-15.33 -8.23,-22.95 -12.11,-38.66 -30.28,-74.85 -44.56,-112.61 -3.66,-7.25 -7.25,-14.43 -10.92,-21.46 -9.42,-19.96 -18.77,-39.93 -26.92,-60.34 -11.59,-24.45 -20.79,-50.39 -21.31,-77.69 18.62,-10.69 38.88,-7.7 57.8,0.23 15.85,9.87 31.85,19.44 48.83,27.44 -20.34,-28.04 -50.1,-45.91 -79.18,-63.48 -57.65,-21.91 -102.52,-68.19 -132.72,-120.91 -39.41,-52.56 -76.12,-107.15 -116.87,-158.81 -15.85,-20.49 -37.46,-36.26 -49.5,-59.67 35.44,-0.59 72,-1.79 105.2,12.94 7.4,2.47 14.8,5.09 22.28,7.85 17.42,4.78 34.84,9.57 52.26,14.5 7.55,2.69 15.1,5.53 22.58,8.45 3.59,0.75 10.76,2.24 14.35,3.06 19.52,9.65 39.7,17.95 59.82,26.55 73.13,27.89 138.7,71.18 209.44,104.23 29.91,17.2 58.54,36.56 88.83,53.31 160.76,95.86 304.32,216.69 446.09,338.04 25.8,22.58 58.55,39.11 75.67,69.99 3.14,-3.81 6.21,-7.56 9.35,-11.29 -35.52,-30.43 -61.24,-69.61 -94.14,-102.36 -53.98,-65.35 -115.22,-124.42 -168.46,-190.52 -81.28,-94.36 -162.85,-188.5 -244.43,-282.56 19.14,-10.99 40.15,-2.31 60.19,0.52 -9.57,-7.63 -19.52,-14.58 -29.69,-21.09 -13.16,-5.61 -26.32,-11.44 -39.03,-17.87 -24.23,-9.87 -36.57,-34.84 -58.02,-48.6 -43.97,-30.65 -80.46,-71.41 -107.75,-117.31 -18.17,-37.54 -44.41,-70.06 -67.44,-104.61 -14.95,-30.06 -33.57,-58.4 -44.79,-90.25 -3.74,-12.41 -7.7,-24.6 -11.59,-36.79 -17.8,-40.3 -21.09,-84.49 -30.06,-127.11 -9.35,-28.11 -3.51,-58.1 -5.31,-86.96 -2.32,-46.58 1.65,-93.09 0,-139.67 -12.71,17.57 -24.9,35.52 -36.86,53.69 0,4.04 -0.15,12.04 -0.22,16 -3.74,3.37 -11.22,10.02 -14.95,13.38 0,-70.81 0,-141.61 -0.15,-212.43 -0.37,-21.54 5.76,-42.32 9.87,-63.18 2.84,-9.87 5.31,-19.89 7.85,-29.83 2.61,-9.94 4.78,-20.04 7.18,-29.98 5.38,-12.56 10.47,-25.12 14.88,-37.98 9.35,-19.96 19.29,-39.7 29.09,-59.37 -19.07,16 -36.34,34.1 -54.06,51.67 -0.52,-24.98 -1.65,-50.32 4.26,-74.77 3.29,-20.04 7.33,-39.93 13.09,-59.37 2.84,-9.87 5.23,-19.81 7.63,-29.76 20.41,-47.78 38.88,-96.53 62.96,-142.66 4.11,-12.19 8.45,-24.23 12.56,-36.34 -27.44,23.56 -57.72,43.3 -86.43,65.06 -2.99,-38.06 9.57,-74.1 18.24,-110.52 11.59,-39.1 27.37,-77.02 54.14,-108.34 -5.24,0.75 -15.78,2.24 -21.09,2.99 23.93,-99.37 88.16,-181.32 139.6,-267.54 -76.64,71.63 -164.42,130.03 -253.85,184.24 -48.68,28.71 -95.11,63.18 -148.5,82.77 -2.84,-3.44 -8.45,-10.24 -11.22,-13.61 6.43,-12.19 13.01,-24.45 16.67,-37.83 -20.33,20.49 -36.94,44.34 -57.35,64.75 -53.16,1.65 -107,-0.07 -158.44,-15.25 10.31,24.3 38.21,30.13 60.26,39.26 5.46,2.09 16.38,6.28 21.83,8.37 -14.51,6.28 -29.16,12.04 -43.97,17.57 -14.95,3.44 -29.69,7.55 -44.34,11.81 -59.67,11.36 -121.58,17.87 -181.92,8.22 -1.65,0.45 -5.09,1.34 -6.73,1.8 -11.81,-2.77 -23.7,-5.16 -35.67,-7.33 -31.11,-10.76 -60.34,-26.02 -90.32,-39.33 19.37,25.42 47.18,42.24 69.01,65.35 51.97,50.99 103.11,104.16 142.52,165.77 5.91,12.93 12.26,25.8 18.47,38.73 9.8,17.8 18.32,36.34 27.81,54.43 1.5,-0.07 4.64,-0.3 6.21,-0.45 2.99,-9.72 -2.24,-19.07 -4.19,-28.41 2.84,-8.97 2.47,-18.17 -0.37,-27.07 5.16,-9.12 10.39,-18.17 15.85,-26.99 15.63,3.14 31.1,6.88 46.73,10.39 15.56,9.65 31.7,18.62 45.84,30.43 20.86,17.5 29.01,44.57 37.83,69.31 -0.75,2.62 -2.17,7.78 -2.91,10.39 11.14,33.65 -4.26,67.15 -4.64,101.09 -15.85,49.2 -27.59,99.3 -39.4,149.47 4.63,16.6 -3,32.9 -3.44,49.57 -1.2,30.73 -2.09,61.91 3.74,92.34 -1.5,33.94 -4.56,67.82 -4.04,101.91 -0.3,30.13 3.44,61.46 -8.15,90.25 -4.48,-0.3 -13.53,-0.82 -18.09,-1.12 -58.69,-31.41 -108.12,-76.57 -155.82,-122.33 17.42,33.72 42.32,62.73 60.42,96.16 6.58,13.31 13.98,26.24 22.28,38.65 0.97,3.44 2.99,10.32 3.96,13.76 24.52,53.31 57.05,102.66 78.74,157.32 3.66,12.34 7.55,24.68 11.29,37.16 10.31,24.38 18.54,49.57 25.94,75 9.05,18.99 7.85,39.03 0.52,58.4 -13.39,-3.29 -26.62,-6.95 -39.78,-10.69 -17.35,-10.77 -35,-21.01 -52.79,-30.73 -18.09,-8.83 -35.37,-19.14 -52.11,-30.13 -74.32,-42.02 -144.39,-97.13 -184.76,-174.07 -7.48,-12.93 -16.3,-24.97 -25.87,-36.49 -3.81,12.49 -7.7,24.97 -11.14,37.61 -2.32,2.92 -7.11,8.75 -9.42,11.67 -46.06,-45.39 -94.06,-89.95 -126.14,-147 -5.98,-12.41 -12.04,-24.75 -18.17,-37.01 -4.86,-15.26 -9.8,-30.43 -15.11,-45.39 -1.27,-6.95 -2.54,-13.76 -3.81,-20.56 -14.06,-17.35 4.04,-27.15 19.81,-29.76 14.73,12.04 29.54,24 45.54,34.4 -22.51,-31.85 -54.58,-54.58 -83.89,-79.41 -16.97,-23.78 -28.86,-50.77 -45.98,-74.47 -38.36,23.1 -69.24,56.22 -89.87,95.93 -0.22,4.64 -0.52,13.83 -0.68,18.47 -3.96,2.09 -11.96,6.28 -15.93,8.3 0.82,-17.27 3.59,-34.32 9.35,-50.62 26.84,-46.13 62.29,-88.76 76.72,-140.94 2.39,-7.55 4.79,-15.03 7.18,-22.51 6.36,-13.98 11.59,-28.49 14.73,-43.44 15.63,23.93 40.3,39.18 60.11,59.22 20.56,20.56 38.96,43.89 64,59.59l-1.05 7.25c4.19,-4.04 8.3,-8.07 12.41,-12.11 -12.41,-14.58 -22.2,-31.11 -31.4,-47.7 -7.63,-14.96 -15.18,-29.83 -22.13,-45.01 -2.02,-3.96 -6.13,-11.81 -8.15,-15.7 -0.75,-3.52 -2.24,-10.54 -2.99,-13.98 -7.4,-17.28 -13.01,-35.14 -18.62,-52.94 -1.94,-7.48 -3.96,-14.81 -5.91,-22.14 -2.47,-15.55 -4.71,-31.1 -9.12,-46.13 -6.43,-66.02 -18.17,-131.53 -17.5,-198 -5.61,-33.43 -19.22,-64.98 -31.26,-96.46 -12.04,-0.07 -24.07,-0.07 -36.04,-0.07 -3.59,2.39 -10.77,7.18 -14.28,9.57 -0.07,-6.06 -0.22,-18.24 -0.3,-24.3 3.44,-2.54 10.24,-7.56 13.69,-10.02 3.06,-25.94 10.99,-50.77 18.17,-75.74 3.67,-7.48 7.25,-15.03 10.92,-22.43 11.96,-23.33 26.24,-45.24 39.48,-67.74 0.44,-22.58 0.37,-45.17 -0.97,-67.67 -8.9,16.98 -15.33,37.84 -35,45.39 -1.57,-24.45 -1.87,-48.98 0.07,-73.43 7.7,-16.45 6.13,-34.92 7.93,-52.49zm7209.79 -389.26c47.26,15.55 80,56.9 108.42,95.7 0.37,3.67 1.12,10.99 1.49,14.66 25.5,39.26 14.21,88.08 14.43,132.05 -0.52,67.22 1.27,134.51 -10.24,200.98 -32.15,-30.2 -55.85,-68.11 -78.43,-105.65 -4.86,-7.33 -11.29,-12.86 -19.14,-16.75 4.93,7.48 10.17,14.88 15.7,22.21 8.67,24.45 15.63,49.5 22.28,74.62 15.18,47.26 8.6,97.58 9.64,146.33 2.77,70.58 -10.69,140.27 -7.03,210.93 14.13,17.27 -1.12,36.94 -6.43,54.36 -0.45,4.86 -1.27,14.58 -1.65,19.37 -8.9,-5.08 -17.8,-10.09 -26.47,-15.18 -3.74,-0.37 -11.14,-1.2 -14.88,-1.57 -9.72,-5.54 -19.59,-10.99 -29.24,-16.22 4.26,15.48 11.67,29.83 20.19,43.52 12.86,21.39 22.43,44.56 33.5,67 3.74,12.34 7.85,24.67 12.19,36.94 3.36,14.43 4.71,29.24 6.73,44.04 4.04,14.51 5.61,29.54 7.63,44.57 4.19,18.46 6.5,37.31 9.94,56 -0.75,1.42 -2.32,4.26 -3.07,5.68 7.63,22.2 2.39,46.73 11.89,68.42 2.69,55.48 0.75,111.11 1.05,166.67 -1.2,34.54 10.32,68.04 8.15,102.66 -2.92,1.87 -8.75,5.46 -11.67,7.25 -7.48,-15.63 -15.78,-30.81 -23.7,-46.13 -9.72,-15.78 -20.11,-31.1 -31.78,-45.46 8.15,60.26 21.91,121.43 10.92,182.37l0.9 2.46c-2.99,12.94 -5.31,25.87 -7.4,39.03 -2.99,12.41 -5.16,25.05 -7.33,37.76 -6.88,30.21 -13.83,60.34 -22.13,90.25 -2.77,7.33 -5.38,14.81 -7.85,22.36 -8.37,20.34 -15.55,41.2 -25.2,61.09 -1.12,3.29 -3.29,9.94 -4.33,13.31 -10.09,14.13 -18.39,29.39 -25.72,45.16 -12.48,30.13 -41.2,49.05 -54.58,78.59 -38.58,75.07 -103.56,132.72 -175.86,174.37 -24.6,13.83 -46.96,30.88 -70.28,46.43l-0.22 5.83c22.06,-9.8 44.79,-18.92 69.54,-18.39 -18.99,24.52 -36.86,49.87 -56.98,73.5 -41.5,43.59 -76.04,93.24 -118.96,135.49 -45.83,56.6 -93.61,111.48 -141.09,166.67 -53.39,56.15 -105.06,113.72 -154.78,173.09 -23.41,26.02 -51.15,48 -72.68,75.74 128.76,-98.92 249.14,-208.46 377.37,-308.13 58.92,-38.81 113.95,-83.67 175.34,-118.74 69.99,-43.59 141.54,-85.46 216.76,-119.41 31.18,-17.57 65.13,-29.31 97.35,-44.72 3.89,-1.94 11.52,-5.91 15.33,-7.85 20.26,-6.43 40.38,-13.54 59.97,-21.98 7.4,-2.69 14.88,-5.46 22.5,-8.3 3.59,-0.82 10.77,-2.46 14.36,-3.37 53.31,-16.89 107.22,-37.46 164.05,-36.11 -51.96,56.68 -101.84,115.82 -143.19,180.87 -37.39,51.3 -72.08,106.85 -125.09,143.79 -19.96,10.84 -39.33,22.73 -59.74,32.67 -24.82,13.09 -47.93,30.21 -59.07,56.98 15.93,-12.63 32.9,-23.78 51.29,-32.52 18.99,-0.67 37.98,-0.15 57.05,0.82 -0.6,10.69 -1.12,21.46 -1.57,32.22 -9.65,16.98 -17.65,34.85 -23.85,53.31 -7.4,15.03 -14.96,29.98 -22.58,44.87 -19.52,44.56 -37.01,89.95 -56.08,134.74 -0.67,3.59 -2.09,10.76 -2.77,14.35 -6.2,15.18 -12.26,30.43 -18.84,45.46 -2.54,7.4 -5.01,14.88 -7.48,22.36 -7.25,25.05 -14.8,50.02 -22.21,75 -2.61,9.94 -5.01,19.89 -7.7,29.83 -1.13,3.52 -3.37,10.47 -4.49,13.98 -6.36,25.12 -11.29,50.62 -17.57,75.74 -2.54,10.02 -4.94,20.11 -7.48,30.13 -2.69,10.02 -5.01,20.19 -7.85,30.21 -4.86,27.67 -8.83,55.55 -14.73,83.07 -1.42,13.91 -2.69,27.89 -4.26,41.94 -12.71,52.27 -6.35,107.6 -18.69,159.79 -1.57,45.61 -1.57,91.22 -1.8,136.83 5.76,55.48 11.96,110.89 16.45,166.52 5.76,17.8 6.28,36.71 10.84,54.88 1.27,11.67 2.62,23.48 4.26,35.29 5.24,13.39 5.83,27.89 7.03,42.17l6.21 0.22c0.52,-55.1 -2.39,-110.36 2.02,-165.32 12.63,-76.12 20.19,-153.35 40.3,-228.05 2.31,-10.24 4.48,-20.49 7.4,-30.51 3.74,-20.04 9.05,-39.78 15.63,-59.07 0.75,-3.59 2.39,-10.84 3.14,-14.51 6.2,-15.33 12.41,-30.65 19.51,-45.54 0.82,-3.44 2.62,-10.24 3.44,-13.61 9.94,-22.73 16.53,-46.66 26.47,-69.24 0.6,-3.51 1.87,-10.54 2.54,-14.06 4.34,-7.33 8.82,-14.58 13.31,-21.76 0.45,-3.66 1.27,-10.92 1.65,-14.58 2.24,-3.96 6.66,-11.96 8.82,-16 22.28,-44.94 38.29,-93.54 69.46,-133.54 11.52,27.89 19.74,57.95 38.66,82.17 4.49,-42.7 -3.29,-86.36 6.5,-128.46 6.28,-28.19 13.69,-56.3 26.62,-82.25 23.18,-47.33 58.62,-86.96 89.95,-128.91 34.99,-47.11 82.17,-83.22 116.57,-130.78 5.39,9.5 10.54,18.99 16.15,28.56 4.26,76.34 -12.04,151.79 -7.26,228.2l5.16 -0.15c2.09,-11.67 4.41,-23.18 7.25,-34.62 1.05,-3.44 3.07,-10.39 4.11,-13.83 15.4,-37.61 27.74,-76.79 48.82,-111.78 17.57,-37.98 36.19,-75.59 60.34,-109.99 43.52,-69.54 92.12,-136.01 148.87,-195.38 15.93,-16.67 27.29,-37.61 45.91,-51.74 29.01,-21.46 53.61,-48.3 83.97,-68.04 -0.3,33.13 -0.82,66.25 -0.67,99.44l6.96 0c0.45,-8.52 1.05,-16.9 1.8,-25.27 10.47,-22.8 19.44,-46.36 29.91,-69.16 43,-75.52 116.05,-126.96 189.55,-169.73 10.02,-4.86 20.04,-9.72 30.21,-14.43 28.64,-15.85 57.65,-31.63 88.68,-42.39 5.01,2.46 15.03,7.4 20.04,9.94 -3.51,10.24 -6.8,20.64 -9.87,31.18 -11.44,19.59 -22.5,39.41 -33.35,59.3 -14.73,22.13 -29.91,43.96 -42.1,67.59 -18.69,34.32 -35.44,69.61 -51.89,105.05 -4.11,7.41 -8.07,14.81 -11.96,22.36 -0.67,3.37 -2.02,10.24 -2.69,13.61 -5.98,12.41 -11.29,25.12 -16.07,38.06 -3.44,9.94 -6.73,20.04 -9.94,30.13 -2.76,7.63 -5.38,15.26 -8.07,22.96 -0.82,3.44 -2.39,10.39 -3.22,13.83 -2.09,4.71 -6.35,14.2 -8.45,18.91l6.8 -0.07c49.28,-96.53 119.86,-179.9 188.2,-263.12 54.36,-50.47 99.22,-110.29 156.8,-157.32 29.98,-27.14 54.96,-59.89 88.68,-82.77 22.73,-15.63 44.79,-32.22 66.85,-48.9 3.44,-0.67 10.47,-2.09 13.98,-2.76 8.52,-2.84 17.2,-5.46 26.09,-7.93 0.67,24.75 3.81,50.25 -3.74,74.4 -1.35,3.29 -4.04,9.87 -5.39,13.16 -2.69,10.09 -4.94,20.34 -7.1,30.66 -4.94,10.09 -9.72,20.26 -13.83,30.81 49.95,-54.13 56.53,-141.92 125.02,-180.05 42.62,-12.11 82.62,-33.35 116.49,-61.98 51.44,-46.44 99.07,-99.37 128.01,-163.08 5.91,-12.19 11.89,-24.45 18.09,-36.56 5.08,-10.54 10.39,-20.94 16,-31.18 0.67,-3.44 1.94,-10.39 2.54,-13.83 3.96,-10.02 7.85,-20.11 11.89,-30.13 1.72,-12.79 3.66,-25.43 6.73,-37.91 9.12,-44.04 17.12,-91.52 4.19,-135.41 -1.5,-17.5 -1.65,-35.14 -6.43,-52.04 -2.69,-12.41 -5.01,-24.75 -7.85,-37.01 -1.05,-3.44 -3.29,-10.47 -4.34,-13.91 -2.54,-7.78 -4.86,-15.48 -6.88,-23.25 -4.86,-7.56 -9.72,-14.95 -14.58,-22.28 8.07,35.59 9.94,72.08 8.67,108.49 -3.81,82.63 -24.82,169.58 -83.74,230.82 -30.06,42.47 -75.44,70.96 -123,90.25 -22.21,1.2 -44.34,1.05 -66.47,0.38 -49.13,-23.19 -82.7,-67.67 -106.85,-114.85 -21.01,-47.11 -39.85,-97.13 -39.55,-149.4 30.35,11.22 56.75,30.28 86.43,43 -27.74,-31.48 -57.65,-60.94 -80.83,-96.08 -8.75,-17.57 -17.42,-35.07 -25.95,-52.57 -0.97,-3.51 -2.91,-10.39 -3.89,-13.91 -9.5,-31.41 -4.56,-64.75 -3.74,-96.9 5.31,-10.85 6.06,-22.96 6.21,-34.77 -0.52,-34.47 5.53,-68.64 12.86,-102.21 0.82,-5.08 2.46,-15.33 3.29,-20.41 30.06,26.77 54.06,59.59 71.93,95.63 5.91,12.86 12.19,25.72 18.4,38.66 11.51,22.95 24.82,44.86 37.53,67.22 11.22,22.2 24.6,43.89 44.19,59.82 -6.73,-15.33 -14.28,-30.21 -21.76,-45.17 -2.54,-7.78 -5.01,-15.48 -7.55,-23.18 -0.97,-3.37 -2.99,-10.24 -4.04,-13.69 -10.39,-26.84 -12.26,-55.63 -17.65,-83.59 -10.24,-35.81 -10.69,-73.05 -11.36,-109.99 -8.98,-18.02 -5.98,-38.51 -6.43,-57.87 1.35,-46.21 -8.15,-94.14 8.82,-138.63 9.05,-14.58 18.17,-29.09 26.77,-43.96 41.65,-78.29 106.93,-140.8 177.81,-192.61 -12.71,4.04 -25.05,8.9 -37.17,14.06 -17.5,9.5 -35.22,18.4 -53.16,26.92 -32.23,16.3 -64.08,33.65 -97.13,48.23 -7.78,2.62 -15.33,5.39 -22.73,8.38 -15.26,-1.42 -29.46,-6.51 -42.32,-14.36 -0.15,-38.28 22.73,-70.13 44.49,-99.59 40.82,-54.14 97.28,-93.76 155.67,-126.81 42.7,-19.37 86.96,-36.49 133.24,-44.79 88.98,-21.76 182.44,-13.46 271.72,0.37 17.27,1.72 35.07,2.09 51.97,7.33 6.73,1.57 13.61,3.14 20.63,4.79 40.68,7.25 80.98,16.22 121.35,25.12 19.74,2.77 39.18,7.33 58.62,12.04 9.57,2.91 19.37,5.53 29.31,8.3 6.5,1.19 19.59,3.59 26.17,4.86 -15.1,-8.97 -31.56,-15.03 -47.93,-20.71 -7.7,-2.54 -15.25,-5.23 -22.58,-8 -3.59,-0.67 -10.69,-1.94 -14.28,-2.61 -7.48,-4.04 -14.88,-8 -22.13,-11.96 -15.41,-7.4 -30.66,-15.11 -45.61,-23.18 -3.52,-0.59 -10.69,-1.8 -14.2,-2.32 -10.32,-5.46 -20.56,-10.69 -30.81,-15.85 -27.52,-12.94 -54.36,-27.07 -81.35,-40.9 -31.18,-14.51 -60.49,-32.6 -90.7,-48.9 -20.34,-10.02 -39.55,-21.91 -58.92,-33.5 -34.77,-24 -79.78,-36.19 -104.68,-72.31 31.93,-7.48 55.93,-30.28 80.75,-50.17 -43.67,11.29 -91.3,13.38 -135.04,3.06 -7.18,-1.12 -14.13,-2.17 -21.01,-3.06 -49.2,-24 -93.61,-55.86 -135.04,-91.37 -37.83,-23.93 -65.28,-59.89 -101.24,-85.91 -40.08,-32.6 -71.03,-74.02 -105.13,-112.23 -19.37,-24.3 -39.63,-56.9 -23.18,-88.16 0.6,-3.74 1.72,-11.06 2.32,-14.73 9.42,-14.8 20.63,-28.26 32.37,-41.28 11.29,0.52 22.66,0.68 34.1,2.39 15.55,7.26 26.47,21.61 40.22,31.85 -11.14,-27.07 -32.45,-48.23 -57.65,-62.36 -12.49,-2.84 -24.75,-6.06 -37.01,-8.97 -13.38,8.37 -26.47,17.05 -39.56,25.65 -1.65,-9.35 -3.06,-18.77 -4.41,-28.11 -6.36,-22.73 -11.74,-45.69 -17.94,-68.34 -7.4,-34.02 -22.43,-65.5 -37.76,-96.38 -17.13,-40.15 -50.4,-68.71 -76.72,-102.21 -44.34,-40.9 -91.22,-79.26 -143.19,-110.21 37.24,42.85 85.39,77.09 111.04,129.13 5.01,10.39 10.39,20.71 15.93,30.96 0.44,3.59 1.42,10.92 1.87,14.51 4.41,9.72 8.9,19.59 13.46,29.38 -0.67,2.02 -1.94,5.98 -2.62,8 7.4,32.52 -4.48,64.9 -5.68,97.43 -11.74,22.13 -23.85,43.96 -35.44,66.1 -22.28,-13.53 -43.37,-28.71 -64.08,-44.34 -16,-11.81 -34.69,-21.09 -45.31,-38.43 14.88,-1.42 29.98,-2.39 45.17,-3.44 -5.61,-16.07 -20.04,-22.88 -35.97,-23.85 -16.15,3.81 -31.93,-1.35 -47.26,-5.54 -45.31,-42.99 -89.05,-88.83 -117.46,-145.2 -6.28,-14.95 -12.26,-29.98 -18.54,-44.86 -0.67,-3.44 -2.09,-10.47 -2.77,-13.98 -3.37,-7.55 -6.58,-15.18 -9.65,-22.8 -5.08,-20.04 -4.41,-40.75 -3.59,-61.17 -10.47,-16.15 -23.41,-30.36 -37.24,-43.52 -0.3,9.94 -0.44,19.89 -0.44,29.83 -9.8,6.2 -19.44,12.63 -28.79,19.29 -26.47,-22.73 -44.27,-53.17 -61.69,-82.92 -19.82,-31.63 -42.62,-61.24 -65.5,-90.7 -47.41,-52.26 -90.92,-109.02 -148.12,-151.41 -55.33,-54.13 -120.98,-95.18 -185.36,-137.43 -16.98,-10.69 -34.25,-21.01 -52.04,-30.13 -13.01,-6.06 -25.8,-12.41 -38.51,-18.62 -12.26,-6.28 -24.37,-12.49 -36.26,-18.99 -7.93,-3.29 -15.85,-6.43 -23.7,-9.5 68.87,45.09 134.52,98.25 178.93,168.76 8.37,17.27 17.12,34.39 25.65,51.67 4.94,12.71 9.87,25.5 15.03,38.21 0.9,3.51 2.77,10.61 3.67,14.13 7.48,19.96 12.79,40.6 18.77,61.09 1.05,9.35 2.17,18.69 3.67,28.04 12.19,46.66 2.24,96.08 5.46,143.86 -2.69,2.69 -8.07,8.07 -10.77,10.77 -22.58,-15.33 -40.15,-35.96 -57.43,-56.68 3.07,14.96 6.96,29.76 10.24,44.71 1.8,4.04 5.46,12.11 7.26,16.15 14.58,23.7 28.86,47.7 39.63,73.58 2.92,14.88 3.59,30.06 4.04,45.24 -4.86,7.55 -9.65,15.18 -14.28,22.88 -0.59,3.59 -1.72,10.77 -2.32,14.28 -21.23,40.15 -51.81,74.85 -92.19,96.46 -12.48,5.83 -24.9,11.66 -37.31,17.2 -14.28,3.29 -25.5,11.74 -30.13,25.94 10.99,-1.8 22.66,-3.52 33.8,-5.91 5.68,7.25 11.44,14.5 17.57,21.53 -26.02,13.24 -41.87,38.43 -63.78,56.68 -44.26,35.14 -84.04,75.52 -129.5,109.17 -7.56,3.3 -14.95,6.66 -22.28,10.02 -7.7,2.46 -15.25,5.01 -22.73,7.7 -28.72,6.8 -57.95,10.47 -87.41,10.77 23.85,14.43 51.52,14.8 78.58,14.35 -26.92,29.46 -63.78,46.13 -96.08,68.72 -7.48,3.81 -14.81,7.63 -22.06,11.52 -3.66,0.74 -10.92,2.09 -14.58,2.76 -7.63,2.84 -15.18,5.76 -22.66,8.53 -9.87,2.61 -19.67,5.23 -29.31,7.77 -53.69,13.16 -108.72,-0.74 -161.51,-11.51l-0.15 8.3c4.56,0.22 13.76,0.75 18.32,0.97 12.41,8.37 25.12,16.45 38.21,23.93 17.94,9.12 35.07,19.59 52.56,29.69 19.29,11.74 38.58,23.48 59.07,33.35 33.43,23.26 72.31,40.38 97.13,73.95zm483.48 -187.46c13.91,-33.05 37.61,-60.86 69.01,-78.51 1.87,0.52 5.61,1.5 7.48,2.02 20.11,-3.07 37.99,8.9 54.81,18.39 3.37,0.67 10.02,2.09 13.38,2.77 72.83,40.07 138.11,91.97 200.91,146.25 39.03,34.84 81.5,65.43 127.63,90.25 3.96,1.94 11.81,5.76 15.78,7.7 48.82,9.87 100.42,26.69 149.32,7.18 18.46,-7.85 37.08,-15.26 55.78,-22.96 0.07,3.74 0.3,11.29 0.44,15.11 -9.2,3.59 -18.17,7.33 -27.06,11.06 -37.39,21.16 -72.68,45.69 -111.34,64.53 -3.51,0.97 -10.39,2.91 -13.91,3.81 -24.68,8 -51.52,7.26 -76.34,0.6 -32.75,-9.87 -64.38,-22.88 -96.23,-34.99 42.99,35.81 85.91,74.25 110.21,125.76 3.44,7.26 7.03,14.51 10.77,21.76 7.4,22.51 15.03,45.01 22.43,67.59 4.56,19.44 8.75,39.03 11.96,58.85 10.32,53.69 17.35,107.89 24.82,162.03 0.45,9.42 0.3,18.76 1.12,28.33 -12.56,-12.86 -23.93,-26.69 -35.74,-40 -0.44,20.27 -0.44,40.53 -0.22,60.87 -5.61,4.78 -10.99,9.57 -16.3,14.43 18.69,4.41 29.09,20.04 33.57,37.83 2.61,3.29 7.78,9.94 10.39,13.31 8.52,25.8 20.86,50.25 30.58,75.67 1.04,3.44 3.06,10.32 4.04,13.76 3.81,13.91 5.46,28.19 7.33,42.47 -10.47,-0.22 -20.71,-0.45 -30.88,-0.6 -6.43,11.37 -12.63,22.81 -18.62,34.4 -35.22,49.12 -24.97,111.48 -28.93,167.93 -7.48,28.34 -4.19,57.95 -10.39,86.44 -2.69,32.9 -11.81,64.6 -20.11,96.45 -6.06,15.56 -12.11,31.1 -19.07,46.28 -0.6,3.44 -1.8,10.39 -2.32,13.83 -4.26,7.26 -8.3,14.43 -12.26,21.76 -4.86,10.09 -9.64,20.26 -14.35,30.43 -11.89,19.81 -26.02,38.36 -35.22,59.67 37.46,-28.94 65.13,-68.72 104.01,-96.01 15.33,-10.92 26.77,-26.09 38.13,-40.9 2.17,10.99 4.56,22.06 7.33,33.2 5.61,23.03 14.2,45.24 23.93,67 0.6,3.44 1.8,10.47 2.39,13.98 5.38,7.63 11.07,15.33 16.3,23.26 8.08,14.88 17.2,29.23 25.5,44.11 11.07,18.32 23.4,35.81 34.39,54.28 -15.63,-9.72 -29.98,-21.24 -45.54,-30.8 -16,-21.39 -31.26,-43.37 -44.12,-66.77 -22.88,13.91 -37.16,36.48 -51.59,58.17 -33.2,28.11 -67.22,55.7 -103.48,79.78 3.51,2.99 7.18,5.91 10.99,8.9 14.5,-17.72 36.79,-23.33 58.32,-27.29 16.37,28.93 -10.84,59.59 -15.7,88.9 -3.81,7.18 -7.48,14.43 -11.07,21.76 -29.98,65.2 -77.31,122.48 -134.81,165.09 -0.75,-5.53 -2.32,-16.75 -3.07,-22.35 -28.86,30.51 -51.67,77.69 -96.38,84.34 -38.96,44.41 -88,77.84 -138.1,108.34 -17.72,9.65 -34.99,20.11 -52.56,29.83 -22.88,13.01 -46.21,25.05 -69.54,37.09 -8.9,-6.2 -17.57,-12.79 -25.72,-19.44 2.09,-10.62 4.26,-21.16 7.1,-31.56 9.2,-32.67 16.9,-65.95 29.69,-97.43 24.83,-61.76 56.68,-120.23 86.89,-179.38 8.37,-14.73 17.57,-28.94 25.94,-43.67 24.07,-43.89 55.33,-83.22 88.53,-120.46 -53.69,44.79 -107,90.03 -165.02,129.13 -11.07,3.37 -21.91,7.1 -32.6,10.77 -4.56,-16.15 -8.22,-32.45 -11.21,-48.83 -11.89,-38.21 1.5,-77.99 1.57,-116.8 0.75,-65.87 5.76,-132.5 -8.67,-197.4 -6.35,-28.79 -9.79,-58.09 -13.76,-87.26 -1.94,-3.22 -5.76,-9.72 -7.7,-12.94l7.78 -1.87c-10.47,-32.82 -9.94,-70.21 -0.6,-103.26 -1.72,-0.9 -5.09,-2.77 -6.8,-3.66 1.72,-3.14 5.23,-9.27 6.95,-12.34 1.87,-9.12 3.96,-18.09 6.35,-27.07 4.26,-23.11 12.64,-45.16 22.73,-66.32 13.91,-34.47 40.75,-62.66 49.72,-99.22 -38.43,26.31 -77.46,51.89 -117.02,76.42 4.19,-12.64 9.2,-24.98 14.51,-37.24 2.31,-10.17 4.78,-20.26 7.78,-30.2 7.1,-22.06 14.13,-44.27 20.19,-66.7 6.28,-19.44 10.91,-39.41 15.1,-59.44 3.44,-14.58 4.86,-29.46 6.88,-44.26 12.04,-43.67 1.05,-89.88 6.5,-134.44 10.55,-36.56 2.47,-76.49 16.38,-112.91 13.38,-42.32 -4.78,-88.38 10.84,-130.03 -1.27,-0.9 -3.81,-2.77 -5.16,-3.67 7.78,-14.73 14.13,-30.21 15.63,-46.88 3.96,-7.48 8.15,-14.95 12.41,-22.28 0.52,-3.51 1.57,-10.54 2.09,-14.13 10.54,-17.65 21.09,-35.29 30.58,-53.54 5.76,-10.09 11.89,-20.04 18.32,-29.76 3.81,-12.19 7.78,-24.3 11.07,-36.56 -20.86,43.14 -64.23,68.04 -105.5,88.75 -1.12,-53.24 0,-106.47 -0.67,-159.71 -0.07,-19.51 -1.5,-39.55 5.39,-58.24 1.72,-14.66 3.36,-29.31 6.35,-43.82 5.08,-15.1 10.39,-30.13 16.6,-44.86 0.67,-3.44 2.09,-10.39 2.77,-13.91zm850.68 441.98c11.89,-15.93 24.23,-31.85 40.98,-43.07 15.63,0.52 31.63,0.6 46.81,5.83 3.36,0.9 10.09,2.69 13.53,3.67 30.06,15.85 59.15,33.72 89.5,49.28 12.79,6.13 25.65,12.48 38.59,18.62 7.25,4.04 14.58,8.15 22.06,12.26 6.28,0.74 18.84,2.09 25.05,2.76 -2.39,2.62 -7.33,7.93 -9.8,10.62 -39.03,4.04 -76.42,16 -112.76,30.13 -14.58,4.04 -29.01,8.37 -43.44,12.49 -18.17,-1.57 -36.34,-2.24 -54.36,-2.92 -17.5,-17.05 -35.07,-34.39 -46.96,-55.93 -2.62,-14.73 -5.98,-29.24 -9.2,-43.74zm-1830.79 107.07c-0.82,148.94 -0.22,297.96 -0.22,446.91 -27.14,-7.78 -48.9,-25.43 -67.67,-45.76 0.07,12.04 0.3,24.15 0.6,36.26 11.96,19.81 23.93,39.7 34.77,60.19 4.49,12.64 9.65,25.12 15.48,37.39 7.33,20.71 10.54,42.47 13.76,64.23 -0.59,2.17 -1.87,6.51 -2.54,8.68 8.23,22.5 3.96,47.03 8.83,70.28 12.19,72.53 -11.74,146.63 1.42,218.86 -2.32,2.24 -6.95,6.8 -9.27,9.04 -5.46,-11.96 -10.99,-23.78 -16.75,-35.37 -0.37,-3.81 -1.04,-11.36 -1.42,-15.1 -3.67,-3.29 -11.07,-9.8 -14.73,-13.01 0.22,22.43 -3.21,45.98 5.61,67.37 2.46,64.6 25.42,128.09 15.1,192.99 -9.12,29.31 -29.24,53.46 -50.32,75.15 -0.15,3.89 -0.37,11.74 -0.52,15.63 -30.73,19.81 -57.28,45.69 -89.43,63.26 -34.47,19.52 -68.34,39.78 -101.31,61.61 -10.09,4.78 -20.11,9.65 -30.13,14.43 -7.18,3.67 -14.36,7.4 -21.39,11.14 -23.56,11.89 -47.11,24 -71.26,34.54l-0.67 6.13c25.27,-1.5 49.87,-9.27 75.44,-8.75 16.52,-0.52 34.02,1.42 49.5,-6.28 47.11,-0.52 95.11,-5.61 141.76,2.84 10.25,3.06 20.64,6.06 31.11,9.27 1.12,-1.5 3.37,-4.41 4.49,-5.91 16.07,9.42 34.99,16.53 44.86,33.57 3.89,7.93 8.15,15.85 12.63,23.63 4.34,57.42 -69.31,63.4 -86.58,108.94 7.55,-3.81 15.18,-7.56 22.88,-11.29 10.39,-4.71 20.86,-9.27 31.41,-13.76 2.39,7.78 4.86,15.63 7.55,23.56 -3.96,9.05 -8,18.02 -11.89,27.07 -0.52,3.44 -1.57,10.47 -2.09,13.91 -16.67,33.05 -38.21,63.26 -59.96,93.09 -37.46,50.99 -88.76,89.05 -137.65,128.16 27.81,-10.47 56,-20.04 83.3,-31.93 19.59,-11.14 38.88,-22.95 58.54,-34.09 36.94,-21.98 75.59,-41.65 109.02,-69.17 39.48,-33.12 84.57,-59.22 121.65,-95.26 48.68,-42.32 98.18,-83.97 141.39,-131.97 4.48,3.74 13.46,11.21 17.94,14.95 3.44,7.7 7.1,15.4 11.07,23.11 -2.02,14.73 -5.39,29.31 -8.97,43.74 -8.9,16.67 -17.72,33.57 -31.18,47.11 2.69,3.81 5.54,7.63 8.45,11.44 23.78,-31.11 52.12,-59.22 67,-96.31 1.5,-13.24 3.07,-26.47 7.85,-38.88 1.57,-27.07 -0.52,-54.36 4.56,-81.13 -5.31,-46.95 6.66,-93.69 13.54,-139.89 3.14,-51.74 5.16,-103.56 5.31,-155.38 1.05,-39.25 -7.33,-81.87 17.2,-116.12 13.01,-23.85 23.26,-49.05 33.27,-74.32 3.22,-10.17 6.58,-20.34 10.17,-30.35 -27.22,27.29 -53.16,55.85 -80.3,83.22 -2.39,-9.72 -4.04,-19.14 -5.98,-28.71 6.88,-104.83 -8.15,-210.71 5.16,-315.24 1.2,-7.03 2.39,-13.98 3.96,-20.94 0.82,-4.11 2.39,-12.49 3.22,-16.67 8.37,-20.04 16.52,-40.3 25.94,-59.97 7.78,-12.26 15.85,-24.3 23.63,-36.64 6.8,-14.88 13.61,-29.83 19.59,-45.09 -24.68,16.38 -50.55,30.74 -75.07,47.19 -4.71,0.3 -13.98,0.82 -18.69,1.05 -2.47,-50.77 19.29,-97.8 27.22,-147.15 5.61,-31.78 18.39,-68.64 -3.14,-97.43 -1.49,-99 -1.42,-198.07 -0.07,-297.14 2.84,-7.85 5.69,-15.78 8.45,-23.7 9.57,-17.87 20.34,-35.07 31.48,-52.04 7.85,-6.06 15.63,-12.33 23.56,-18.54 13.46,0.07 27.06,-0.52 40.67,1.5 30.36,10.09 52.41,34.77 76.04,55.11 -3.22,-12.48 -6.13,-24.9 -9.27,-37.24 -22.21,-18.84 -38.43,-44.11 -63.63,-59.44 -60.72,-42.92 -131.45,-73.43 -179.38,-132.35 2.92,-3.44 8.9,-10.24 11.81,-13.68 -9.87,-16.15 -20.64,-31.85 -33.65,-45.54 -8.15,1.94 -15.85,5.16 -23.56,7.85 -17.5,-36.56 -37.01,-72.15 -54.13,-108.94 -0.67,-3.59 -2.09,-10.69 -2.76,-14.28 -3.07,-7.55 -5.91,-15.1 -8.53,-22.58 -3.51,-12.64 -6.5,-25.43 -10.24,-37.91 -5.69,-19.14 -9.57,-38.81 -12.04,-58.62 -6.35,-19.59 -5.46,-40.3 -6.28,-60.57 -4.11,12.71 -8,25.5 -12.26,38.21 -0.22,27.74 -4.41,55.26 -13.91,81.43 -7.56,33.2 -16.45,66.17 -29.69,97.57 -4.86,12.26 -9.87,24.45 -14.88,36.64 -6.5,13.98 -14.2,27.52 -27.14,36.56 -6.43,-10.17 -12.86,-20.11 -19.52,-29.83 -8.45,32.83 13.24,67.82 -5.38,98.03 -18.17,28.26 -39.78,53.98 -61.09,79.86 -30.13,35.37 -72.83,61.54 -89.65,106.77 -2.99,9.8 -6.35,19.52 -9.8,29.24 32.37,-28.19 69.31,-62.36 115.89,-55.48 18.84,26.17 32.3,55.56 40.08,86.96 4.04,33.27 7.18,66.7 1.87,100.12zm-1122.77 240.09c-4.04,65.35 -7.93,130.78 -6.8,196.28 -13.91,-7.03 -27.59,-14.28 -41.72,-20.41 -0.52,5.54 -1.42,16.6 -1.94,22.14 17.05,32.9 36.26,66.02 40.68,103.48 5.23,37.24 6.43,76.19 -5.31,112.39 -29.31,-24.83 -42.84,-61.76 -67.15,-90.55 7.63,28.04 19.22,54.96 25.57,83.52 3.59,9.94 7.33,19.96 11.22,29.98 0.82,3.59 2.54,10.69 3.36,14.21 3.74,12.78 6.95,25.8 10.54,38.73 2.54,10.02 4.79,20.11 7.85,30.13 1.35,6.88 2.84,13.76 4.49,20.71 4.19,17.94 5.91,36.41 10.47,54.36 1.72,14.8 3.21,29.61 5.16,44.41 4.86,45.09 6.35,92.04 24.67,134.22 3.22,12.71 7.11,25.5 9.05,38.58 -5.39,8 -12.79,11.37 -22.06,10.09 -31.26,-0.3 -59.59,-16 -85.91,-31.03 45.83,75.07 146.78,95.71 185.36,176.84 8.07,15.48 17.35,30.43 27.29,44.93 0.15,3.81 0.52,11.37 0.67,15.11 7.48,7.18 14.96,14.43 22.73,21.61 -6.95,-22.28 -13.83,-44.71 -23.18,-66.1 4.19,-4.41 8.52,-8.74 13.01,-13.01 8.45,8.15 17.72,15.56 28.11,21.39 39.63,24.75 73.2,57.2 100.19,95.26 10.09,31.48 15.41,66.7 3.14,98.48 -1.2,6.95 -2.32,13.98 -3.22,21.09 -11.59,22.58 -22.88,45.31 -34.92,67.67 -1.2,6.95 -2.24,13.91 -3.29,21.01 -10.77,23.03 -6.58,49.57 7.18,70.44 -1.42,-27.81 6.13,-69.09 38.88,-73.8 5.91,15.63 7.93,32.3 10.46,48.75 16.6,80.38 72.16,149.47 143.41,188.95 17.8,8.3 34.92,18.17 53.01,26.17 -31.78,-29.61 -69.46,-54.21 -88.98,-94.81 -5.98,-15.26 -11.89,-30.43 -18.32,-45.31 -1.35,-7.03 -2.62,-13.98 -3.74,-20.86 -14.43,-42.4 0,-87.11 11.07,-128.46 6.35,-12.26 12.56,-24.67 18.77,-37.01 26.99,-49.05 65.05,-90.55 104.01,-130.18 2.39,-0.3 7.18,-0.9 9.57,-1.19 1.05,13.61 2.32,27.37 3.96,41.05 -0.22,1.87 -0.59,5.69 -0.82,7.55 1.42,4.79 4.33,14.36 5.76,19.14l5.61 -0.07c1.2,-11.51 0.75,-23.4 4.56,-34.39 24.75,-54.88 67.74,-99.52 117.47,-132.72 -3.81,14.43 -7.78,28.86 -10.17,43.67 33.05,-32.08 69.01,-61.46 109.17,-84.35 23.18,-10.61 45.83,-22.13 68.42,-33.94 17.12,-6.73 34.54,-12.49 52.04,-18.32 39.48,-14.43 85.39,-0.15 120.98,-26.17 20.86,-13.91 15.55,-41.65 23.03,-62.44 1.27,-11.06 2.32,-22.13 3.51,-33.12l-7.78 0.45c-7.4,29.91 -4.41,63.78 -24.45,89.2 -9.94,1.8 -19.81,3.96 -29.54,5.76 -29.39,-8.45 -46.73,-34.77 -58.55,-61.17 -0.82,-3.51 -2.54,-10.54 -3.44,-14.06 -6.73,-26.69 -10.31,-54.06 -12.11,-81.43 10.09,-18.54 6.28,-40.22 8.45,-60.34 12.78,-37.39 3.22,-77.99 5.91,-116.72 -3.74,-0.3 -11.14,-0.98 -14.8,-1.27 -0.15,-49.57 0.15,-99.07 -0.15,-148.57 -0.07,-21.69 -1.8,-43.74 4.78,-64.68 3.44,-17.27 7.33,-34.39 12.04,-51.37 5.31,-12.79 10.24,-25.8 14.88,-38.81 3.36,-3.29 10.02,-9.87 13.31,-13.16 0,-14.65 0,-29.38 0.15,-43.96 -26.54,14.8 -46.21,38.36 -69.46,57.28 13.61,-25.5 17.64,-53.61 21.31,-81.88 5.16,-22.88 12.64,-45.16 19.44,-67.59 16.3,-24.23 37.83,-46.88 43.37,-76.49 0.38,-11.59 5.31,-28.64 -9.34,-33.35 -9.72,15.56 -19.67,38.28 -40,40.45 -20.41,-19.22 -5.91,-51.07 -10.84,-75.74 -11.07,-88 -9.05,-177.36 4.26,-264.91 4.78,-35.22 12.11,-69.99 20.71,-104.46 8.75,-22.88 16,-46.44 26.47,-68.64 0.75,-7.1 1.57,-14.13 2.54,-21.16 11.96,-21.69 22.88,-44.04 31.18,-67.44 1.72,-3.81 5.23,-11.59 7.03,-15.48 7.55,-14.88 15.1,-29.76 21.76,-45.01 -15.03,14.95 -26.85,32.67 -39.63,49.5 -47.41,60.41 -107.6,109.84 -174.96,146.48 -32.98,14.51 -61.54,36.71 -90.03,58.25 -26.99,20.48 -47.11,48.52 -74.17,68.79 -37.24,27.59 -69.46,62.29 -92.19,102.74 -6.28,15.11 -12.64,30.21 -17.72,45.76 26.24,-16.15 41.35,-47.93 73.05,-56.97 17.42,14.8 6.13,40.15 17.12,58.54 -0.45,11.89 -0.9,23.85 -1.87,35.74 9.35,112.98 -9.05,228.57 21.69,339.46 -22.43,-13.68 -44.11,-28.56 -66.7,-41.8 8.15,44.34 42.92,78.88 46.96,124.72 4.04,91.37 1.87,182.82 -0.37,274.26 -6.2,-10.09 -11.51,-20.56 -15.93,-31.41 -6.2,-11.74 -13.08,-23.1 -19.96,-34.24 -0.07,16.22 0.6,32.53 1.27,48.83 12.04,44.79 33.5,88.46 28.86,136.01 -18.32,20.71 -41.13,36.19 -64.68,50.32 -30.96,27.96 -60.64,57.57 -88.98,88.31 -24.97,-26.62 -51.67,-51.52 -77.17,-77.54 -39.63,-35.59 -18.92,-93.91 -23.78,-140.27l-6.06 0c-8.6,33.27 -7.25,68.19 -17.87,100.94 -10.24,-11.51 -19.74,-23.55 -28.26,-36.34 -0.59,-9.87 -1.19,-19.74 -1.79,-29.54 -8.3,-23.25 -5.16,-48.52 -10.77,-72.38 -9.5,-45.98 6.43,-94.81 -8.9,-139.52 -2.09,-19.67 -2.09,-39.63 2.24,-58.92 3.21,-20.19 8.22,-39.93 13.23,-59.67 10.77,-30.43 26.47,-58.69 38.43,-88.6 -24,20.04 -50.02,37.31 -76.04,54.36 -6.65,-8.15 -12.04,-17.2 -3.14,-26.77 0.97,-9.35 1.87,-18.54 2.99,-27.74 16.15,-34.39 25.42,-71.33 31.7,-108.64 -10.09,-71.41 3.74,-142.96 4.56,-214.45 3.37,-3.21 9.94,-9.72 13.24,-12.93 1.87,-10.92 3.96,-21.76 6.5,-32.53 -3.89,-9.57 -7.78,-19.14 -11.81,-28.56 -0.75,-16 -7.7,-35.67 8.07,-46.81 43.59,-38.88 102.21,-54.21 152.23,-82.92 3.74,-0.45 11.07,-1.35 14.73,-1.87 7.63,-4.63 15.25,-9.34 23.03,-13.98 8.82,0.07 17.72,0.3 26.69,0.52 -9.42,32.6 -21.31,64.38 -33.2,96.16l5.83 -0.22c16.83,-28.19 37.61,-53.99 61.91,-76.04 36.86,-31.33 80.83,-53.02 117.39,-84.79 24.3,-17.65 43.22,-41.57 67.89,-58.85 38.51,-39.18 71.26,-83.3 102.66,-128.16 28.19,-28.86 55.56,-58.62 75.44,-94.06 -13.83,6.95 -27.81,13.68 -41.8,20.11 3.51,-7.78 7.1,-15.56 10.84,-23.26 19.59,-34.09 37.16,-69.24 56.3,-103.48 15.56,-32.23 29.01,-65.35 44.19,-97.72 14.43,-21.01 28.04,-43.59 50.24,-57.5 3.07,3.14 9.28,9.42 12.34,12.56 -9.42,-16.22 -3.67,-33.5 1.05,-49.95 -11.22,6.96 -22.58,13.69 -34.17,19.81 -8.08,4.04 -29.39,15.26 -26.47,-3.59 1.87,-53.24 10.09,-106.93 -2.69,-159.64 -5.54,-22.36 -9.27,-45.09 -14.73,-67.44 -9.12,-18.17 -16.22,-37.98 -4.71,-56.9 -5.16,0 -15.48,0 -20.64,0 -6.35,-11.59 -13.01,-22.88 -19.07,-34.47 -23.03,-34.32 -46.96,-68.12 -72.53,-100.64 -19.14,-25.43 -46.8,-41.95 -70.58,-62.36 28.11,35.96 47.78,77.02 64.53,119.26 7.4,16.98 12.79,34.7 18.47,52.34 1.05,3.52 2.99,10.54 4.04,14.06 3.96,13.69 7.33,27.59 10.92,41.5 -5.98,51.29 -3.67,103.78 -17.43,154.03 -4.26,30.21 -17.12,57.95 -28.86,85.84 -2.92,-2.62 -8.83,-7.78 -11.74,-10.39 0,-3.96 -0.07,-11.89 -0.07,-15.85 -10.17,-12.63 -20.04,-25.5 -30.43,-37.83 11.14,41.43 12.64,86.36 3.07,128.16 -0.97,3.52 -2.84,10.4 -3.81,13.91 -2.02,3.89 -6.13,11.59 -8.15,15.48 -11.07,25.13 -24.07,49.8 -44.11,69.02 -45.98,60.71 -105.2,109.76 -166.74,153.81 -25.95,14.65 -52.42,28.33 -77.61,44.11 -20.34,-6.58 -12.19,-30.88 -23.1,-44.94l-0.82 9.42c-57.35,40.6 -107.45,94.58 -175.19,118.44 -15.03,6.13 -30.13,11.89 -45.16,17.8 -7.63,2.39 -15.1,4.93 -22.51,7.55 -17.2,3.74 -34.24,7.93 -51.29,11.89 -15.78,3.74 -31.7,6.28 -46.96,11.22 -27.37,1.2 -55.85,5.38 -82.25,-3.96 -3.59,-0.67 -10.77,-2.09 -14.36,-2.76 -8.22,-8.15 -16.37,-16.3 -24.37,-24.45 -0.45,-6.28 -1.2,-18.99 -1.57,-25.35 -8.07,7.1 -15.48,14.8 -22.28,22.95 1.2,27.67 0.22,55.41 -4.04,82.78 3.07,15.48 5.46,31.1 9.5,46.43 4.04,41.12 20.49,80.53 17.5,122.33 -1.94,37.08 4.26,75 -5.16,111.48 -16.08,-16.22 -31.7,-32.75 -49.13,-47.48 6.88,19.59 15.03,38.88 18.77,59.44 3.51,7.56 7.18,15.03 10.91,22.58 2.09,10.24 4.19,20.56 6.81,30.73 1.35,3.37 4.11,10.09 5.46,13.38 6.73,21.01 5.01,43.22 3.81,64.9zm-3509.41 -347.46c44.94,31.56 78.28,76.34 100.04,126.44 0.07,18.17 0.82,36.41 5.61,54.13 -0.75,0.82 -2.17,2.54 -2.84,3.37 2.84,13.16 4.64,26.54 6.28,40 -11.52,-6.35 -22.13,-14.13 -32.45,-22.06 7.25,21.76 9.65,44.56 13.46,67.07 2.84,10.02 5.38,20.11 8.75,30.13 2.69,24.53 6.21,49.06 11.67,73.2 10.92,32.75 1.2,67.81 6.58,101.39 3.44,19.14 7.17,38.21 10.69,57.43 -1.79,2.92 -5.53,8.67 -7.33,11.59 -8,-5.38 -16.07,-10.69 -23.93,-16 -5.01,-0.15 -15.03,-0.37 -20.04,-0.45 2.02,12.11 2.69,25.2 10.61,35.37 18.77,28.11 37.39,56.6 50.1,88.15 0.67,11.96 1.35,24 2.47,36.04 11.29,28.64 2.24,60.34 9.42,90.03 -3.07,10.92 -4.56,22.36 2.77,32.37 -1.27,42.17 8.82,87.11 -6.13,127.41 0.52,12.11 1.72,24.22 4.11,36.11 2.92,9.87 5.68,19.89 8.9,29.83 5.68,49.65 17.12,101.02 4.41,150.52 -1.05,3.36 -3.22,10.02 -4.26,13.38 -7.03,20.26 -15.33,40.45 -29.91,56.6 -6.2,0.07 -18.47,0.3 -24.67,0.45 7.18,16.15 20.56,27.59 36.41,35 54.06,11.51 101.69,44.19 144.39,78.21 27.74,28.26 59.89,53.39 81.2,87.26l5.46 0.52c-3.37,-8.67 -6.65,-17.35 -9.94,-25.95 33.8,12.34 56.3,41.13 81.28,65.35 28.71,28.26 49.5,63.11 66.47,99.37 2.46,7.48 5.08,15.03 7.85,22.58 1.19,3.36 3.44,10.09 4.56,13.46 3.89,17.8 5.83,36.04 10.24,53.91 3.66,-51.22 3.07,-102.89 0.6,-154.03 -11.29,-55.26 -16.75,-111.56 -13.09,-167.86 15.63,-23.78 30.06,-48.45 39.48,-75.3 -12.11,10.32 -23.7,21.38 -35.14,32.52 -22.58,-6.35 -31.7,-27.74 -40.9,-47.1 -0.9,-3.52 -2.77,-10.47 -3.66,-13.98 -17.65,-89.73 -12.04,-182.74 8.37,-271.42 0.52,-5.16 1.5,-15.63 2.02,-20.79 -12.71,16.45 -25.5,32.82 -38.66,48.98 -3.81,-11.29 -7.03,-22.66 -10.54,-33.87 -10.62,-61.01 4.48,-123.82 -9.27,-184.39 -6.35,-41.65 4.33,-84.57 -6.73,-125.61 4.11,-1.65 12.19,-5.01 16.23,-6.73 51.22,-12.86 105.72,-13.46 157.02,-0.37 28.79,10.92 54.66,27.89 82.32,41.28 28.34,18.54 53.61,41.5 73.35,69.17 -12.04,4.93 -24.52,8 -37.39,9.49 -3.14,3.29 -9.34,9.87 -12.48,13.16 9.65,-0.07 19.37,0 29.09,0.07 57.5,52.26 105.35,114.1 140.27,183.64 10.39,19.67 20.34,39.7 30.13,59.82 11.44,27.59 18.55,56.9 21.31,86.74 -17.27,-0.52 -34.84,-0.3 -51.22,-6.2 -3.59,-0.82 -10.77,-2.39 -14.36,-3.22 -12.19,-7.85 -24.15,-16.15 -36.34,-23.93 16.52,19.96 33.57,39.41 50.32,59.22 48.08,32.83 84.49,79.33 116.64,127.26 0.45,3.44 1.27,10.39 1.72,13.91 4.04,7.25 8.07,14.58 12.11,21.98 2.09,3.96 6.2,11.96 8.3,15.93 0.67,3.44 1.94,10.32 2.62,13.76 6.95,15.03 13.08,30.43 19.44,45.83 0.89,3.59 2.69,10.69 3.51,14.21 14.96,35.81 14.28,74.7 12.56,112.68 -7.93,12.94 -15.63,25.94 -23.48,38.88 -4.49,2.54 -13.46,7.55 -17.95,10.09 -20.94,0.9 -41.05,-4.63 -60.11,-12.64 -10.02,-2.76 -20.04,-5.08 -29.91,-8 -3.37,-0.82 -10.17,-2.54 -13.61,-3.36 -3.96,-2.02 -11.89,-6.21 -15.85,-8.23 -7.25,-3.67 -14.43,-7.33 -21.61,-10.84 -7.85,-2.54 -15.7,-5.16 -23.4,-7.78 -3.52,-0.82 -10.54,-2.46 -14.06,-3.21 -16.9,-9.12 -34.4,-17.2 -52.49,-23.48 -15.18,-6.2 -30.51,-12.19 -45.54,-18.47 -3.59,-0.75 -10.69,-2.17 -14.2,-2.84 -10.17,-5.46 -20.57,-10.69 -30.88,-15.4 47.85,39.11 91.15,83.22 133.61,128.01 48.38,64.45 97.13,128.91 138.26,198.37 16.22,28.34 32,56.98 48,85.54 -5.16,6.51 -10.31,13.01 -15.4,19.59 15.1,16.9 24.15,37.91 32.6,58.7 5.01,-9.05 10.02,-18.17 15.18,-27.14 5.69,9.2 11.29,18.54 16.97,27.96 19.22,37.69 40.53,74.33 59.52,112.16 14.28,31.25 31.85,60.86 48.9,90.7 9.27,17.8 19.74,34.92 29.91,52.26 9.87,20.34 21.69,39.7 33.35,59.07 6.2,10.17 12.71,20.26 18.99,30.58 32.97,54.21 66.25,108.27 101.46,161.13 57.65,77.76 109.02,159.86 170.41,234.86 35.14,50.1 81.8,90.55 115.97,141.31 2.84,-3.81 5.68,-7.63 8.6,-11.36 -8.68,-10.09 -16.53,-20.64 -23.18,-32 -32.45,-58.62 -68.19,-116.12 -88.61,-180.35 -2.76,-7.63 -5.53,-15.18 -8.3,-22.65 -0.9,-3.52 -2.77,-10.39 -3.67,-13.83 -3.89,-12.79 -7.1,-25.57 -10.84,-38.29 -4.19,-14.58 -8.52,-29.16 -12.41,-43.74 -7.33,-31.85 -12.49,-64.15 -13.98,-96.83 -15.18,-41.35 1.05,-85.31 3.89,-127.41 7.41,-21.01 5.54,-43.52 5.31,-65.28 -11.52,23.26 -21.76,53.31 -49.43,61.39 -9.57,-12.86 -16.3,-27.29 -23.78,-41.35 -24.08,-51.97 -39.11,-107.74 -47.48,-164.35 13.83,6.96 27.3,14.66 41.57,20.71 -13.23,-23.85 -31.18,-44.49 -47.11,-66.4 -0.75,-3.51 -2.32,-10.46 -3.06,-13.98 -12.11,-53.54 -21.54,-111.26 -3.37,-164.5 6.88,6.87 13.61,13.91 20.56,21.08 0.22,3.59 0.67,10.92 0.9,14.51 11.14,20.78 21.31,42.24 35.29,61.39 1.27,-22.88 -1.87,-46.88 8.22,-68.27 26.02,25.2 51,51.37 77.17,76.49 44.04,39.85 81.28,86.81 128.01,124.05 -12.63,-22.96 -28.64,-43.67 -42.47,-65.8 -19.81,-37.09 -40,-74.32 -49.87,-115.52 -8.97,-23.78 -5.08,-49.8 -13.46,-73.57 0.97,-0.75 2.91,-2.32 3.89,-3.07 -10.09,-32.3 -9.27,-67.07 -4.19,-100.19 15.41,15.03 28.94,32.15 45.84,45.76 -4.04,-13.01 -9.35,-25.35 -15.56,-37.39 -3.96,-10.09 -7.78,-20.26 -11.14,-30.51 -4.26,-7.48 -8.6,-14.8 -12.86,-22.13 -1.42,-46.96 13.61,-92.8 34.77,-134.14 11.44,-21.98 23.7,-43.37 35.59,-65.05 2.69,2.54 8,7.63 10.69,10.17 4.04,51.22 13.61,101.54 25.65,151.41 9.5,30.43 18.7,61.16 32.98,89.87 34.99,82.7 84.87,159.56 146.33,225.06 -17.12,-30.35 -35.07,-60.19 -52.34,-90.4 -6.8,-17.27 -14.28,-34.25 -20.04,-51.82 -5.16,-19.74 -10.09,-39.56 -14.73,-59.29 -2.84,-12.34 -5.09,-24.83 -7.33,-37.09 -9.64,-35.67 -3.51,-73.13 -5.38,-109.54 -3.07,-53.39 11.44,-106.1 34.84,-153.66 23.48,-34.69 60.72,-55.93 88.23,-86.88 -3.74,-2.77 -7.4,-5.46 -11.07,-8.07 -10.92,11.29 -26.92,9.27 -40.9,10.99 -2.39,-3.06 -7.11,-9.12 -9.5,-12.11 3.14,-12.56 5.91,-25.2 8.45,-37.83 2.39,-7.48 4.78,-14.96 7.18,-22.43 3.51,-7.55 7.03,-15.03 10.69,-22.43 21.98,-44.87 56.53,-81.43 86.81,-120.61 17.8,-22.06 41.05,-39.1 57.87,-62.06 25.05,-36.04 63.33,-60.87 85.46,-99.3 23.03,41.95 66.55,66.92 92.72,106.63 40.9,43.81 83.22,86.88 115.82,137.58 24.67,39.4 45.91,83.97 43.22,131.67 -12.86,-0.45 -25.65,-0.3 -38.28,-2.02 -15.4,-7.7 -26.77,-21.39 -40.3,-31.7 9.42,18.92 21.98,36.41 39.18,49.05 33.05,24.82 65.5,53.01 82.1,91.89 6.58,24.83 10.92,50.25 18.62,74.77 10.09,41.05 3.89,84.27 3.59,126.14 -9.43,24.6 -2.92,51.74 -10.62,76.86 -2.76,9.72 -5.23,19.67 -7.92,29.54 -3.89,12.41 -7.93,24.83 -11.81,37.31 -5.91,14.88 -11.74,29.76 -17.95,44.56 -10.02,19.29 -21.83,37.54 -34.84,54.96 2.69,3.89 5.61,7.78 8.6,11.74 17.94,-25.2 38.5,-48.45 55.18,-74.62 22.58,-32.83 37.61,-69.99 57.2,-104.61 0.3,-3.74 0.82,-11.22 1.12,-14.95 3.29,-3.44 9.87,-10.4 13.16,-13.83 1.94,-8.07 4.04,-16.07 6.35,-24 2.54,-7.25 5.23,-14.5 8.07,-21.68 4.64,-17.5 9.35,-35 14.43,-52.42 2.84,-30.73 9.5,-60.86 12.41,-91.59 3.52,-21.98 2.02,-45.61 13.24,-65.57 21.61,42.77 48.53,82.77 65.13,128.01 5.76,22.43 9.35,45.31 13.76,68.04 -3.67,9.72 -7.03,19.59 -10.69,29.31 -0.52,3.59 -1.5,10.62 -1.94,14.13 -12.11,19.06 -26.47,37.39 -31.63,59.81 12.41,-13.09 22.88,-27.89 35.67,-40.6 12.78,-4.78 20.56,11.37 19.07,22.13 1.42,51.52 -8.53,102.66 -16.9,153.36 -2.69,7.4 -5.23,14.95 -7.63,22.58 -13.98,40.15 -33.87,77.84 -53.54,115.45l-9.12 -2.02c4.63,4.79 9.35,9.65 14.28,14.43l-0.45 -6.88c55.7,-44.94 100.65,-101.76 154.7,-148.65 27.07,-17.05 43.81,-44.71 64.53,-68.19 5.39,12.11 10.99,24.15 16.82,36.19 1.12,6.88 2.39,13.76 3.74,20.78 9.5,26.77 5.83,55.86 2.31,83.44 -4.41,19.97 -7.63,40.68 -16.9,59.3 -12.04,23.63 -32.52,41.8 -43.52,66.02 5.68,-1.94 16.97,-5.98 22.65,-7.93 4.49,-0.75 13.39,-2.17 17.87,-2.91 -5.69,18.91 -7.78,38.58 -11.37,58.02 -13.76,49.5 -30.88,98.55 -60.57,141.09 -15.33,-12.48 -26.69,-28.71 -38.43,-44.26 -4.04,-13.83 -8.3,-27.52 -12.19,-41.2l-4.26 -0.22c0.45,15.85 0.97,31.7 2.17,47.56 6.88,49.72 26.09,98.63 19.22,149.54 -10.09,21.83 -3.59,46.88 -10.77,69.61 -2.62,12.56 -4.93,25.2 -7.85,37.76 -2.39,11.96 -4.56,24.15 -7.33,36.11 -6.88,22.28 -13.46,44.56 -19.81,67 -2.62,7.48 -5.09,15.03 -7.41,22.65 -10.77,30.66 -23.48,60.57 -37.31,89.95 -5.24,9.87 -10.17,19.89 -14.96,30.06 -18.62,31.55 -35.37,64.75 -60.04,92.19 2.69,3.66 5.54,7.33 8.45,11.07 42.84,-54.88 94.13,-103.11 134.21,-160.46 53.54,-69.09 105.28,-139.6 153.28,-212.73 45.76,-74.62 95.86,-146.63 137.8,-223.64 11.89,-22.8 25.94,-44.34 37.39,-67.37 11.96,-22.73 25.79,-44.41 37.53,-67.3 23.11,-39.25 44.04,-79.63 63.48,-120.75 11.36,-18.25 22.88,-36.42 31.55,-56.16 2.84,-0.15 8.6,-0.37 11.52,-0.45 0,5.91 0.07,17.8 0.07,23.78l5.31 -0.07c3.59,-21.01 10.24,-41.72 24.38,-58.17 -2.39,-4.11 -4.64,-8.15 -6.81,-12.11 13.54,-25.12 26.62,-50.47 38.58,-76.34 11.89,-20.19 25.35,-39.41 37.69,-59.37 29.01,-49.72 67.97,-92.27 101.46,-138.85 43.74,-47.93 87.86,-95.93 140.27,-134.74 -12.78,2.99 -25.2,6.66 -37.69,10.02 -7.93,4.04 -15.7,8.15 -23.48,12.34 -3.36,0.67 -10.17,2.09 -13.53,2.76 -12.49,5.76 -25.2,11.07 -38.06,15.7 -7.63,3.66 -15.11,7.48 -22.51,11.37 -3.67,0.67 -10.92,2.02 -14.58,2.69 -20.04,8.08 -40.15,15.85 -60.57,22.66 -7.48,4.04 -14.88,8.07 -22.21,12.26 -3.59,0.52 -10.84,1.65 -14.43,2.24 -7.55,3.29 -15.03,6.58 -22.43,9.87 -15.18,3.14 -30.73,4.04 -45.98,4.79 -10.54,-8.08 -20.93,-16.3 -30.81,-25.05 -2.76,-8.6 -5.61,-17.12 -8.52,-25.57 -0.44,-34.62 -5.01,-70.06 3.29,-104.08 9.57,-27.15 18.32,-54.66 27.37,-81.95 8.6,-17.42 17.12,-34.84 25.65,-52.19 28.33,-44.41 59.96,-88.38 103.93,-118.59 26.32,-17.65 47.93,-40.98 66.17,-66.77 -16.45,11.14 -33.35,21.53 -51.29,30.06 -8.07,2.92 -16.08,5.98 -23.85,9.35 -7.7,0 -15.25,-0.22 -22.73,-0.75 -14.13,-8.45 -0.07,-22.28 2.76,-32.97 6.88,-20.04 13.69,-40.15 22.51,-59.44 10.54,-30.36 23.11,-59.89 34.47,-89.95 15.11,-37.98 33.87,-74.47 56.68,-108.42 19.14,-29.46 46.81,-53.39 58.32,-87.56 -15.33,13.16 -32.15,24.6 -51.37,31.03 1.12,-12.63 2.77,-25.2 5.91,-37.46 4.48,-14.73 8.67,-29.54 12.11,-44.41 10.99,-22.43 22.28,-44.64 33.13,-67.07 18.32,-32.75 47.63,-58.7 57.05,-96.31 -19.89,12.79 -39.26,26.24 -58.47,39.93 -5.08,0.07 -15.18,0.22 -20.19,0.3 29.31,-68.56 31.48,-144.68 59.74,-213.55 0.82,-3.59 2.47,-10.77 3.29,-14.35 2.84,-7.48 5.68,-14.96 8.6,-22.43 5.16,-15.03 10.02,-30.21 14.13,-45.61 3.89,-7.33 7.93,-14.58 12.04,-21.76 0.6,-3.59 1.87,-10.62 2.46,-14.21 15.93,-24 21.24,-52.56 29.61,-79.63l-4.86 0.67c-18.02,28.41 -38.36,55.63 -63.85,77.76 0,-40.3 5.83,-80.38 12.71,-120.01 5.24,-24.45 10.17,-49.05 12.04,-74.02 2.77,-7.4 5.54,-14.88 8.3,-22.28 4.34,-23.48 8.53,-47.18 18.39,-69.09 1.35,-26.84 1.2,-53.69 1.57,-80.53 19.81,-41.5 53.24,-75.67 92.2,-99.59 13.01,-4.04 25.79,-8.75 38.5,-14.06 30.51,-10.47 61.83,-18.54 93.31,-25.87l-0.07 -4.56c-8.9,-2.17 -17.65,-4.41 -26.24,-6.8 -4.93,-0.08 -9.72,-0.15 -14.5,-0.15 -15.56,3.74 -31.33,6.5 -46.73,10.84 -2.69,-0.15 -8.15,-0.44 -10.84,-0.6 59.07,-58.69 131.67,-101.54 199.34,-149.39 32,-16.9 62.51,-36.78 97.35,-47.63 12.71,-4.78 25.2,-10.09 37.69,-15.78 3.37,-0.82 10.17,-2.61 13.61,-3.44 28.79,-12.41 59.22,-20.79 90.32,-25.2 18.54,-3.06 37.46,-3.29 56.38,-3.44l-0.07 -7.03c-57.2,-3.66 -113.35,7.78 -170.26,9.8 -41.2,9.2 -82.85,15.63 -124.42,22.51 -17.87,4.19 -36.12,6.06 -53.91,9.87 -22.43,4.33 -44.79,9.2 -66.77,15.03 -10.17,2.62 -20.41,4.86 -30.28,7.85 -3.44,1.12 -10.32,3.29 -13.76,4.41 -17.12,5.83 -34.54,10.69 -52.04,15.03 -30.06,11.89 -60.94,21.39 -90.92,33.35 -3.59,0.82 -10.77,2.46 -14.28,3.29 -20.26,8.07 -40.45,16.3 -59.89,26.1 -18.99,7.25 -37.83,15.03 -57.42,20.11 4.48,-9.65 9.12,-19.3 13.83,-28.86 6.43,-10.09 13.01,-19.96 19.29,-30.13 -9.42,4.04 -16.67,10.91 -22.81,18.77 -30.73,38.06 -73.5,63.48 -114.63,88.68 -52.71,26.17 -109.31,46.58 -155.6,83.97 -16.22,11.07 -26.17,28.56 -34.1,46.13 17.13,-10.99 34.55,-21.46 52.27,-31.4 7.7,-0.22 15.48,-0.45 23.4,-0.6 7.93,8.45 15.93,16.9 24.08,25.35 -0.45,23.93 2.99,47.56 7.4,71.04 4.19,49.5 0.75,99.89 -11.81,148.05 -1.57,19.37 -2.32,39.03 -7.26,58.02 1.72,4.11 5.16,12.41 6.88,16.6 -11.59,-6.88 -22.88,-14.28 -34.02,-21.61 8,27.96 17.65,55.63 31.41,81.35 4.19,34.54 4.56,69.98 -2.99,104.16 -3.14,7.4 -6.2,14.88 -9.2,22.28 -1.72,9.65 -3.36,19.44 -5.09,29.16 -2.84,20.49 -3.81,41.43 -9.34,61.46 -1.8,9.5 -3.22,19.07 -4.64,28.72 -2.24,20.19 -3.29,41.5 -13.76,59.52 -11.06,-18.09 -22.58,-35.96 -35.89,-52.41 -0.67,20.41 -2.69,41.57 4.79,61.24 1.35,6.65 2.77,13.46 4.26,20.26 2.99,9.94 5.61,20.04 8.67,30.13 6.8,29.76 7.4,61.61 -0.38,91.3 -2.31,9.87 -4.71,19.74 -7.03,29.61 -3.14,7.63 -6.35,15.25 -9.57,22.95 -0.3,4.19 -1.05,12.64 -1.35,16.9 -3.67,2.46 -10.85,7.55 -14.43,10.09 -0.45,-11.59 -0.75,-23.03 -1.12,-34.47 -6.13,-11.29 -11.89,-22.73 -17.27,-34.32l-4.33 -0.52c0.07,30.81 -1.05,61.69 1.64,92.42 5.83,14.2 5.91,29.69 7.85,44.79 4.56,8.22 4.64,16.52 0.3,24.83 -0.89,3.37 -2.76,10.09 -3.66,13.46 -6.06,15.63 -12.41,31.18 -19.52,46.36 -0.75,3.37 -2.39,10.09 -3.22,13.54 -2.92,7.18 -5.68,14.5 -8.3,21.91 -14.06,24.15 -12.71,55.93 -31.18,77.09 -8.07,-27.89 -15.4,-56 -23.55,-83.82 -2.76,-7.63 -5.54,-15.18 -8.22,-22.73 -1.12,-3.44 -3.37,-10.39 -4.48,-13.83 -3.82,-18.17 -5.09,-36.79 -10.99,-54.43 -1.87,-47.7 -4.11,-96.01 2.02,-143.49 -2.31,-2.69 -6.95,-8.07 -9.2,-10.84 -3.67,12.33 -7.25,24.67 -10.47,37.08 -2.69,3.14 -8.22,9.5 -10.99,12.64 -6.95,-12.04 -13.68,-24.07 -20.33,-36.11 -14.43,-39.11 -26.17,-79.11 -37.09,-119.19 -3.67,-12.78 -6.88,-25.65 -10.62,-38.35 -1.5,-6.96 -2.84,-13.83 -4.11,-20.71 -9.8,-35.15 -3.52,-72.53 -10.17,-108.35 -2.54,-1.65 -7.63,-4.93 -10.17,-6.58 3.29,-0.15 9.94,-0.37 13.23,-0.52 0.3,-25.8 1.94,-51.82 10.32,-76.42l-6.28 0.07c-4.79,13.83 -9.72,27.67 -14.88,41.43 -3.29,17.5 -7.7,34.77 -12.26,52.04 -37.01,-20.79 -48.45,-64.9 -75.59,-95.04 -31.4,62.28 -83.59,111.11 -122.4,168.61 -1.72,10.99 -3.59,21.98 -7.63,32.37 -10.24,43.67 15.48,81.5 34.02,118.59 8.6,21.38 16.22,43.29 20.19,66.17 3.51,18.32 4.56,37.23 10.17,55.18 -2.24,2.61 -6.8,7.85 -9.04,10.39 -16.45,-12.48 -32.9,-25.35 -51.59,-34.32 27.29,45.39 68.87,80.38 94.96,126.22 -13.98,-5.61 -30.36,-9.8 -36.94,-24.9l-5.83 -0.22c7.18,16.08 14.96,31.93 22.73,47.78 9.42,17.72 20.26,34.62 30.58,51.89 1.87,3.74 5.68,11.21 7.55,14.95 15.33,31.03 24,64.68 33.8,97.73 2.61,7.4 5.16,14.88 7.78,22.35 13.61,43.3 23.63,88.01 20.04,133.77 -19.21,-18.99 -40.07,-36.34 -63.48,-49.87 7.7,15.56 18.62,29.31 28.56,43.59 7.63,14.73 15.48,29.31 22.51,44.49 10.31,13.91 18.69,29.16 26.24,44.86 0.82,3.59 2.39,10.84 3.14,14.51 18.69,61.76 15.7,128.08 6.13,191.19 -0.3,29.39 -5.01,58.47 -13.16,86.74 -2.46,10.02 -4.93,19.96 -7.48,30.06 -2.62,9.8 -5.01,19.67 -7.78,29.54 -7.25,18.54 -3.96,45.83 -26.09,53.98 1.5,-23.55 10.62,-45.54 13.46,-68.79 2.02,-16.82 4.26,-33.57 7.41,-50.1 6.65,-38.21 -1.05,-76.64 -6.13,-114.47 -4.26,-12.71 -7.63,-25.5 -11.22,-38.28 -2.54,-10.09 -4.78,-20.26 -7.63,-30.21 -0.75,-3.67 -2.24,-10.92 -2.99,-14.58 -4.48,-7.33 -8.82,-14.58 -13.16,-21.76 -0.52,-3.59 -1.57,-10.84 -2.09,-14.43 -18.92,-44.71 -43,-86.88 -68.34,-128.23 -13.46,-26.92 -25.94,-54.51 -43.59,-78.96 2.77,-3.59 8.37,-10.77 11.22,-14.35 3.96,0.07 12.04,0.22 16.07,0.22 15.03,7.85 29.91,15.93 44.94,23.85 -4.71,-9.2 -9.42,-18.54 -16.82,-25.72 -36.94,-39.18 -78.21,-74.25 -120.91,-106.92 -0.3,-1.87 -1.05,-5.69 -1.35,-7.63 -21.08,-12.63 -46.13,-23.48 -55.63,-48.07 20.34,5.98 44.41,12.78 60.64,-5.98 -12.56,-1.12 -24.98,-1.8 -37.39,-2.54 -59.07,-21.53 -112.39,-56.67 -155.83,-102.06 -19.59,-21.69 -49.95,-33.8 -65.72,-57.8 46.06,-38.65 90.62,-80.75 145.96,-106.17 7.63,-4.94 15.03,-10.17 22.58,-15.33 18.47,-6.58 36.94,-13.39 55.93,-18.7l0.52 -5.16c-29.69,-1.35 -58.69,5.08 -87.93,8 20.26,-33.12 52.04,-56.6 78.06,-84.87 75.89,-69.83 132.5,-156.87 195.08,-238.15 15.4,-18.92 26.09,-40.9 36.41,-62.81 42.24,-64.08 80,-131.3 127.93,-191.49 11.74,-13.46 20.41,-29.16 27.14,-45.69 -12.04,3.52 -23.85,7.48 -35.67,11.22 22.43,-31.1 43.81,-63.26 71.18,-90.4 29.83,-32.08 64.45,-59.67 91.67,-94.21 -15.78,5.83 -29.76,15.1 -43.74,24.08 -9.87,3.89 -19.81,7.7 -29.69,11.36 7.7,-20.34 16.98,-40.08 27.44,-59.15 34.47,-59.96 67.29,-120.98 104.08,-179.6 28.94,-44.87 66.55,-83.52 104.46,-120.91 17.42,-17.35 37.39,-33.28 47.78,-56.23 -21.61,14.35 -43.59,29.38 -69.61,34.17 -1.94,-16.52 -3.74,-33.05 -5.53,-49.57 11.07,-60.04 -5.08,-122.7 9.27,-181.92 2.32,-34.25 8.52,-67.97 11.22,-102.14 3.52,-10.39 5.53,-21.01 5.98,-32 -12.63,21.16 -17.65,45.54 -27.89,67.74 -16.6,32.52 -31.56,65.87 -49.35,97.87 -33.27,55.33 -68.49,109.47 -112.46,157.02 -32.07,26.55 -66.17,50.1 -101.02,72.76 -27.29,-12.19 -15.55,-45.02 -9.5,-67 -17.42,19.96 -24.22,45.83 -35.37,69.31 -1.12,9.35 -2.09,18.84 -3.07,28.34 -4.41,15.26 -7.18,30.96 -11.06,46.36 -0.9,3.59 -2.84,10.61 -3.81,14.2 -10.09,25.13 -19.89,50.4 -29.69,75.67 -22.13,36.11 -40.6,75.74 -72.23,104.68 -0.82,-14.06 -1.12,-28.04 -1.2,-42.1l-4.79 0.37c-2.31,4.86 -6.8,14.58 -9.05,19.44 -0.67,17.5 -0.67,35.3 -6.2,52.12 -0.82,3.59 -2.54,10.69 -3.36,14.28 -10.54,20.34 -22.96,39.63 -33.87,59.82 -23.48,30.88 -48.6,60.56 -75.15,88.9 -16.9,20.04 -31.41,43.37 -55.85,55.03 1.65,-6.13 4.86,-18.46 6.5,-24.6 12.86,-45.76 27.67,-91 45.46,-135.04 0.82,-3.44 2.47,-10.47 3.37,-13.91 2.92,-7.48 5.83,-14.95 8.82,-22.43 2.39,-9.87 4.64,-19.81 6.95,-29.68 10.84,-29.54 16.08,-60.64 25.2,-90.63 4.63,-19.44 8.9,-39.03 12.26,-58.7 9.57,-47.78 16.15,-96.08 25.12,-143.94 1.65,-15.25 2.84,-30.65 7.48,-45.31 0.97,-8.3 2.02,-16.53 3.14,-24.75l-6.35 0.67c-2.91,26.77 -11.44,52.34 -18.92,78.06 -7.7,22.2 -15.18,44.49 -22.5,66.85 -5.61,12.33 -10.77,24.82 -15.48,37.61 -5.16,12.34 -10.09,24.82 -14.8,37.39 -5.31,12.41 -10.24,24.9 -14.65,37.69 -1.8,3.81 -5.46,11.44 -7.26,15.33 -15.93,32.15 -31.63,64.45 -48.15,96.31 -13.53,25.87 -29.61,50.17 -45.09,74.85 -24.67,45.91 -61.09,82.92 -96.38,120.53 -2.92,-15.03 -5.31,-30.06 -7.7,-45.09 2.32,-10.54 3.89,-21.24 5.53,-31.78 -30.58,48.53 -41.42,105.88 -62.65,158.52 -11.59,24.9 -21.01,50.77 -33.72,75.22 -0.75,3.52 -2.24,10.62 -2.91,14.21 -7.56,14.35 -14.43,29.09 -20.41,44.26 21.91,-25.05 36.86,-56.08 63.03,-77.31 6.65,1.05 13.16,3.22 19.44,6.5 -1.57,2.47 -4.56,7.33 -6.06,9.8 4.11,8.59 4.19,17.19 0.37,25.94 -2.24,14.73 -4.04,29.68 -7.55,44.26 -1.05,3.29 -3.14,9.94 -4.19,13.24 -18.09,46.88 -44.94,89.65 -75.22,129.5 -33.57,36.19 -70.89,68.86 -103.33,106.17 -25.87,23.56 -52.34,47.11 -70.21,77.69 -19.67,-33.94 -50.17,-58.32 -79.56,-83.22 -24.45,-30.36 -51.59,-58.25 -79.41,-85.39 -41.28,-48.68 -80.01,-102.59 -94.21,-165.92 -3.67,-16 -5.98,-32.37 -11.89,-47.7 -2.31,-14.8 3.67,-26.24 16.15,-33.94 14.2,22.95 34.92,41.5 45.16,66.99 13.08,-15.03 -0.52,-30.8 -7.56,-45.16 -13.31,-29.91 -24.45,-60.79 -37.83,-90.62 -1.05,-6.95 -2.02,-13.91 -2.92,-20.86 -8.82,-22.73 -16.67,-45.91 -26.09,-68.42 -2.39,-7.63 -4.79,-15.25 -7.18,-22.73 -2.99,-10.69 -5.98,-21.31 -9.42,-31.78 -1.05,17.8 -1.05,35.67 -1.49,53.46 -3.52,8.98 -6.73,18.1 -9.8,27.22 -17.12,-16.3 -34.92,-32.23 -48.3,-51.82 -26.69,-38.43 -56.53,-74.92 -77.84,-116.79 -27.07,-52.12 -56.45,-103.11 -78.44,-157.62 -0.82,-3.29 -2.54,-9.8 -3.36,-13.09 -5.83,-12.49 -11.14,-25.12 -15.93,-37.98 -8.75,-22.36 -16.75,-45.01 -24.9,-67.52 -2.62,-7.63 -5.16,-15.18 -7.78,-22.65 -8.22,-27.52 -14.21,-55.71 -23.7,-82.78 -0.89,62.89 13.83,124.8 24.23,186.63 4.04,18.02 5.76,36.48 9.94,54.43 1.5,6.88 2.99,13.68 4.56,20.64 3.96,15.25 6.73,30.8 10.62,46.13 1.12,3.52 3.36,10.47 4.56,13.91 5.61,28.64 12.86,57.13 26.09,83.37 0.97,6.81 2.02,13.76 3.14,20.64 2.62,8 5.23,16.07 7.78,24.15 3.96,7.4 8,14.73 12.11,22.06 0.45,3.74 1.19,11.22 1.57,14.95 4.48,7.25 8.97,14.66 13.46,21.98 0.67,7.18 1.42,14.43 2.24,21.69 6.95,14.58 12.19,29.98 15.78,45.76 -27.37,-21.76 -50.32,-48.3 -71.78,-75.74 -37.24,-42.84 -73.05,-87.93 -94.29,-141.17 1.05,-30.13 -2.62,-59.97 -11.44,-88.76 -5.01,14.88 -10.09,29.69 -15.18,44.49 -39.63,-26.92 -56,-74.25 -81.58,-112.76 -5.53,-14.58 -10.47,-29.31 -14.95,-44.12 -7.03,-21.83 -11.81,-44.34 -14.95,-66.99 -3.22,-12.56 -4.79,-25.43 -6.21,-38.21 -7.78,-19.89 -17.35,-38.88 -27.96,-57.28 -0.37,14.2 -0.37,28.49 -0.37,42.69 -6.2,6.06 -12.26,12.19 -18.24,18.32 -48.38,-37.01 -99.07,-73.2 -134.67,-123.45 -41.12,-46.58 -70.06,-102.06 -99.37,-156.42 -6.28,-12.86 -12.71,-25.57 -19.14,-38.21 -13.23,-26.84 -22.36,-55.41 -35.44,-82.17 1.12,10.32 2.62,20.71 4.48,31.03 1.72,11.81 3.44,23.63 5.46,35.44 8.67,23.78 4.33,49.57 6.5,74.32 13.46,37.31 3.37,78.44 6.06,117.31 -4.19,36.79 14.13,73.13 2.69,109.32 -9.87,-3.22 -19.59,-6.58 -29.24,-10.09 -3.44,-1.05 -10.24,-2.99 -13.68,-4.04 -12.19,-8.3 -24.75,-15.93 -37.83,-22.58 36.94,44.49 83.89,79.78 119.19,125.76 39.7,44.79 68.79,97.65 99.37,148.8 12.56,25.87 26.32,51.22 41.43,75.67 11.52,21.46 22.73,43.22 30.21,66.55 -16,-6.2 -31.03,-14.65 -44.56,-25.2 -5.16,-0.15 -15.63,-0.52 -20.86,-0.67 54.13,52.11 101.84,110.44 144.31,172.35 -5.91,-0.08 -17.64,-0.38 -23.55,-0.52 57.65,75.37 105.43,157.32 158.74,235.68 0.07,12.79 0.22,25.57 0.52,38.43 -10.39,19.96 -30.51,29.76 -49.35,39.85 -25.87,0.22 -51.89,2.09 -77.61,-0.67 -22.13,-6.06 -39.18,-22.35 -55.93,-37.16 7.48,27.37 28.26,46.21 52.04,59.97 3.51,0.52 10.54,1.64 14.06,2.17 14.73,7.11 30.06,13.09 45.46,18.77 12.79,4.41 25.5,9.35 38.21,14.35 17.43,6.73 34.4,14.66 51.15,23.03 9.94,4.93 19.89,9.87 29.91,14.88 21.61,13.98 44.11,26.62 67.59,37.31 32.08,21.69 64.61,43.52 91.67,71.48 16.07,16.53 32.23,33.28 51.59,46.14 12.48,17.94 25.72,35.59 41.57,50.92 -28.11,-2.47 -55.7,-9.12 -83.97,-10.32l0.3 5.61c42.62,14.73 80.45,40.3 118.44,64.16 35.59,24.67 73.06,48.98 100.72,82.7 -34.09,25.57 -67.89,51.82 -97.95,82.1 -26.77,25.2 -58.17,44.34 -88.83,64.23 -6.73,1.12 -13.39,2.31 -19.89,3.59 -21.09,7.03 -43.52,7.78 -65.5,7.63 0.15,3.22 0.52,9.57 0.68,12.71 21.46,0.6 42.99,0.3 64.6,0.75 -22.43,39.18 -65.28,57.72 -97.8,86.74 -59.15,40.75 -114.4,91.3 -148.72,155.15 31.85,-24.6 54.66,-61.39 93.24,-76.79 12.93,-2.09 26.09,-1.5 39.26,-1.8 -12.71,36.11 -34.7,67.82 -53.24,101.02 -16,29.31 -29.83,59.82 -45.24,89.43 -8.3,17.35 -15.78,35.07 -22.65,53.09 -4.19,17.57 -8.97,35.07 -14.36,52.41 -3.96,17.27 -8,34.47 -12.34,51.67 -10.24,49.2 -2.24,99.97 4.79,149.09 5.16,19.81 9.12,39.93 14.06,59.82 -3.89,-3.07 -11.59,-9.12 -15.48,-12.19 -4.64,-18.24 -8.75,-36.56 -13.24,-54.81 -2.54,-10.09 -4.78,-20.19 -7.4,-30.06 -2.39,-12.71 -4.71,-25.35 -7.85,-37.76 -1.8,-15.18 -2.39,-30.74 -7.93,-45.09 -0.67,-39.26 -10.47,-77.54 -10.69,-116.8 -6.73,-11.06 -3.44,-23.33 -2.32,-35.07 -1.5,-16.07 -3.66,-32.15 -3.29,-48.22 0.22,-17.13 4.11,-33.8 8.07,-50.32 -4.11,2.84 -12.34,8.52 -16.45,11.37l0.52 -5.09c1.65,-3.59 4.86,-10.84 6.5,-14.43 -13.83,-46.89 -43.07,-88.16 -50.17,-137.36 -1.57,-29.39 -10.39,-80.9 30.66,-85.91 -5.31,-5.68 -10.47,-11.36 -15.56,-16.97 1.43,-2.54 4.34,-7.63 5.83,-10.17 -2.24,-2.09 -6.58,-6.13 -8.82,-8.15 -3.52,1.5 -10.54,4.56 -14.06,6.13 -41.5,-14.36 -56.37,-59.82 -78.81,-93.24 -33.65,-59.14 -70.43,-116.49 -109.39,-172.27 -9.35,-16.45 -19.74,-32.22 -29.91,-48.15 10.91,-4.71 22.5,-7.48 34.47,-8.15 7.7,3.81 15.56,7.48 23.48,11.07 11.96,7.48 24.08,14.8 36.41,21.83 -11.89,-16.98 -21.46,-36.72 -39.25,-48.15 -15.93,-9.8 -32.6,-18.17 -48.83,-27.22 -3.89,-2.02 -11.59,-5.98 -15.48,-7.93 -25.5,-2.32 -50.62,-7.55 -75.3,-14.28 -3.44,-1.05 -10.24,-3.22 -13.61,-4.34 -9.94,-3.14 -20.04,-5.53 -29.91,-8.45 -12.48,-2.77 -25.2,-4.41 -37.83,-5.91 -24.45,-21.31 -56.52,-3.89 -83.22,-15.7 10.24,-4.93 20.64,-9.65 31.11,-14.28 34.09,-17.12 66.7,-39.11 90.1,-69.76 22.28,-22.06 46.66,-42.09 71.48,-61.31 31.7,-20.56 64.01,-47.78 104.68,-39.7 -3.06,-3.96 -9.27,-11.81 -12.41,-15.7 22.65,-24.9 55.11,-43.67 66.4,-76.79 -29.24,13.01 -58.02,27.22 -86.51,41.72 -5.53,-5.31 -10.99,-10.69 -16.37,-15.93 5.53,-6.2 11.14,-12.33 16.9,-18.39 2.32,-12.78 5.01,-25.42 6.65,-38.28 0.82,-14.5 1.8,-29.01 3.29,-43.37 11.96,-48.75 3.74,-100.04 4.86,-149.77 -7.03,-17.8 -12.93,-36.04 -19.96,-53.76 -0.67,-3.52 -2.02,-10.47 -2.61,-13.98 -4.11,-7.48 -8.07,-14.88 -11.96,-22.28 -2.54,-7.93 -5.09,-15.78 -7.78,-23.63 -0.67,-3.44 -1.94,-10.39 -2.54,-13.83 -4.48,-7.63 -8.9,-15.25 -13.31,-22.73 -0.37,-3.67 -1.12,-10.99 -1.49,-14.66 -4.41,-7.63 -8.82,-15.18 -13.09,-22.8 -0.9,-3.51 -2.62,-10.54 -3.52,-14.13 -5.23,-14.13 -6.65,-29.16 -6.73,-44.04 32,-0.45 55.93,22.58 78.89,41.72 -8.67,-44.27 -53.16,-59.74 -85.31,-83.67 -37.69,-20.79 -78.21,-36.11 -115.07,-58.55 -41.8,-22.58 -76.57,-54.59 -110.36,-87.41 2.17,14.58 5.23,29.01 8.9,43.29 -16.52,-7.63 -32.98,-15.55 -49.05,-24 -3.44,-0.75 -10.32,-2.17 -13.76,-2.92 -14.95,-6.73 -30.2,-12.63 -45.38,-18.69 -27.59,-9.42 -54.74,-19.89 -82.17,-29.68 -7.78,-2.62 -15.41,-5.31 -23.03,-8.07 -3.52,-0.97 -10.54,-2.84 -14.06,-3.74 -19.96,-7.03 -40.37,-12.49 -60.64,-18.39 -3.44,-1.12 -10.31,-3.37 -13.76,-4.41 -15.4,-3.89 -31.03,-6.5 -46.28,-10.39 -23.1,-5.76 -46.58,-9.8 -69.76,-14.95l-1.12 3.89c-13.61,-4.11 -27.44,-7.55 -41.05,-11.66 -94.66,-17.72 -191.34,-28.26 -287.57,-22.28 35.74,10.02 74.77,1.35 109.24,18.47 3.59,0.82 10.77,2.39 14.35,3.14 10.17,4.11 20.49,8 30.73,12.19 3.44,0.75 10.39,2.17 13.83,2.92 7.63,2.76 15.25,5.46 23.03,8.15 31.85,16.23 64.68,30.51 97.65,44.34 14.88,8.37 29.69,16.9 44.56,25.35 9.87,7.63 19.22,16 28.41,24.45 -22.5,2.91 -49.72,-5.76 -67.44,12.26 22.36,-3.29 44.87,-4.63 67.52,-4.63 40.3,22.8 81.95,48.52 105.8,89.8 -21.31,0.82 -42.62,0.82 -63.93,0.75l0.45 4.94c11.22,4.93 22.43,10.09 33.57,15.33 17.27,6.43 34.39,13.31 51.74,19.59 21.76,14.96 44.64,28.19 67.96,40.53 -40.6,23.78 -84.42,41.72 -127.63,60.12 -3.44,0.9 -10.39,2.69 -13.83,3.59 -9.87,3.06 -19.89,5.61 -29.76,8.6 -32.45,6.73 -67.07,7.63 -99.3,-0.37 -17.35,-2.77 -34.47,-6.51 -51.15,-11.96 -12.41,-5.98 -25.12,-10.99 -38.13,-15.18 -59,-27.67 -99.82,-79.03 -148.05,-120.68 -11.59,-12.78 -21.98,-26.54 -30.88,-41.27l-5.76 -0.6c1.87,4.71 5.53,14.06 7.4,18.77 2.39,7.48 4.94,14.88 7.63,22.35 1.65,6.73 5.01,20.04 6.66,26.77 -15.26,-6.81 -30.43,-13.46 -45.61,-20.34 -65.2,-40 -116.87,-96.91 -170.48,-150.59 -30.81,-33.57 -55.18,-73.35 -68.79,-117.02 -7.7,-40.23 -7.63,-83.37 10.62,-120.83 -21.16,15.85 -34.84,39.11 -48.98,61.09 -5.68,-10.32 -11.14,-20.64 -16.75,-30.96 -0.75,-3.44 -2.32,-10.24 -3.14,-13.69 -4.04,-15.48 -6.88,-31.25 -10.91,-46.73 -1.65,-15.26 -1.94,-30.96 -8.15,-45.24 -2.84,-59.89 -6.06,-122.48 19.06,-178.56 0.97,-3.51 2.99,-10.47 3.96,-13.98 2.54,-7.63 5.09,-15.18 7.55,-22.81 3.89,-7.63 7.93,-15.18 12.04,-22.73 0.45,-3.67 1.27,-11.07 1.65,-14.81 14.2,-25.65 30.43,-50.02 46.43,-74.55 -24.6,19.74 -45.16,43.67 -67.89,65.28 -34.54,32.08 -58.17,73.35 -82.02,113.43 -3.89,7.18 -7.78,14.28 -11.67,21.46 -3.14,-2.99 -9.42,-8.9 -12.56,-11.89 -0.15,14.36 -0.22,28.64 -0.38,43.07 -4.56,7.41 -9.04,14.81 -13.46,22.28 -12.49,63.63 -27.81,127.94 -21.24,193.28 5.01,14.66 5.24,30.21 5.91,45.54 -4.86,-2.02 -14.65,-6.06 -19.59,-8.08 -10.24,-3.21 -20.41,-6.58 -30.58,-9.94 -7.18,15.78 -14.51,31.63 -20.71,47.93 5.09,-3.74 15.26,-11.22 20.34,-14.88 8.82,4.04 19.29,6.43 25.27,14.88 32.53,40.15 53.24,87.85 75.52,133.99 24.45,40.15 37.83,85.99 64.45,125.02 -14.95,-5.38 -29.98,-10.54 -45.01,-15.55 32.3,53.09 82.62,90.7 121.95,137.95 5.01,42.99 47.56,61.31 74.92,88.75 17.87,17.8 40.68,30.81 53.91,53.02 6.28,26.99 5.98,57.8 29.46,76.79 -6.28,-16.97 -7.4,-34.99 -7.18,-52.86 4.86,-6.65 9.65,-13.39 14.43,-20.04 13.69,7.4 27.59,14.43 41.5,21.69 10.17,4.56 20.41,9.27 30.73,13.76zm428.44 2.84c12.86,-19.14 30.96,-34.17 49.57,-47.56 12.63,-5.61 25.05,-11.59 37.39,-17.87 12.41,-3.81 24.82,-7.7 37.31,-11.36 7.4,-2.92 14.8,-5.76 22.28,-8.45 12.26,-2.84 24.67,-5.16 37.08,-7.7 23.63,-7.63 45.61,13.54 61.84,28.34 7.25,26.39 -5.09,52.34 -3.59,78.89 4.34,-11.52 8.67,-23.03 12.86,-34.62 -0.45,-9.27 -0.82,-18.54 -1.12,-27.81 20.56,2.39 16,23.03 17.5,38.06 14.66,25.72 36.34,48 64.98,57.57 8.67,17.5 16,35.81 19.22,55.26 3.37,3.36 10.17,9.94 13.54,13.31 -1.72,10.17 -3.22,20.49 -5.16,30.73 0.67,1.57 2.02,4.78 2.69,6.35 -11.81,26.32 -26.09,51.81 -46.58,72.45 -8.45,-1.27 -16.82,-2.54 -25.12,-3.81 -3.81,7.33 -7.48,14.65 -11.07,21.98 -13.69,29.61 -35.37,54.14 -53.69,80.83 16.38,-7.18 32.53,-23.85 51.15,-12.34 -28.41,50.55 -67.44,94.06 -107.82,135.26 -55.48,48.3 -122.85,81.73 -174.97,134.07 -9.49,9.8 -24.22,8.38 -36.34,11.22 31.63,-34.24 24.37,-84.04 36.19,-126.06 5.16,-25.05 13.09,-49.43 17.43,-74.62 -0.98,-23.63 1.49,-47.63 14.65,-67.97 0.52,-11.96 0.82,-23.85 1.12,-35.74 -8.07,14.13 -15.93,28.34 -23.93,42.47 -4.49,-6.95 -8.9,-13.91 -13.39,-20.79 -1.65,-66.02 -2.62,-132.12 -3.52,-198.15 -5.16,-37.39 -6.58,-76.87 9.5,-111.93zm2567.37 667.79c4.19,3.89 4.19,3.89 0,0l0 0zm-3737.84 -798.86c-22.06,51.37 -70.21,84.64 -94.59,134.59 15.48,-6.88 29.69,-16.15 43.74,-25.57 9.42,-0.07 18.92,-0.07 28.41,0 -2.02,4.63 -5.91,14.06 -7.93,18.77 -1.8,12.41 -3.52,24.9 -6.28,37.24 -11.44,29.83 -17.35,61.61 -31.03,90.55 -0.9,3.37 -2.77,10.09 -3.66,13.38 -2.77,7.63 -5.46,15.33 -8,23.03 -7.85,17.42 -15.25,35.07 -23.4,52.34 -6.21,-9.57 -11.29,-19.74 -13.69,-30.88 -4.63,-5.91 -9.27,-11.81 -13.83,-17.57 0.9,4.63 2.76,13.76 3.67,18.32 -2.62,21.23 -2.25,42.69 -3.89,64 -8.97,45.31 -4.34,92.04 -16.38,137.06 -4.26,14.58 -5.46,29.69 -7.1,44.79 -4.19,18.17 -6.28,36.79 -11.14,54.88 -1.27,15.48 -1.72,31.11 -2.09,46.66 -4.49,0.3 -13.61,0.82 -18.17,1.12 -26.62,12.04 -50.1,30.06 -67,54.13 6.28,-2.62 18.92,-7.93 25.27,-10.54 29.09,23.78 41.05,65.05 42.24,101.54 8.53,52.64 0.98,106.33 -9.57,158.07 -2.17,19.96 -0.75,40.83 -8.23,59.97 -0.89,10.99 -1.57,22.06 -2.09,33.2 -4.49,-0.67 -13.54,-2.02 -18.02,-2.69 -10.91,12.49 -21.98,24.83 -32.67,37.54 -1.12,12.48 -2.32,25.12 -6.65,37.09 0,8.67 0.15,17.5 0.15,26.32 8.22,-14.51 18.54,-27.59 29.39,-40.15 3.29,2.77 9.94,8.37 13.31,11.14 4.34,58.85 5.91,117.92 4.71,176.91 -1.5,43.14 5.46,86.21 0.75,129.35 4.11,39.78 0.52,79.93 4.26,119.71 5.98,28.12 12.04,56.3 22.13,83.37 8.37,13.31 16.45,26.84 23.85,40.83l5.61 0.67c-7.33,-28.93 -10.24,-58.99 -0.6,-87.78 3.51,-2.62 10.61,-7.85 14.13,-10.47 0.07,4.78 0.3,14.28 0.37,18.99 36.79,32.45 62.36,74.7 94.96,110.89 36.71,35.37 70.51,73.87 110.66,105.58 80.46,73.35 171.75,133.61 256.69,201.51 3.81,-2.99 7.55,-5.91 11.37,-8.82 -90.1,-68.34 -152.54,-166.14 -202.78,-266.04 -5.16,-10.47 -10.39,-20.86 -15.7,-31.18 -0.75,-3.44 -2.24,-10.24 -2.99,-13.69 -8.75,-22.2 -16.07,-44.86 -23.93,-67.37 -6.36,-24.22 -4.93,-49.5 -4.86,-74.17 29.31,3.89 51.67,24.45 75.67,39.7 -29.24,-52.19 -85.61,-82.25 -110.96,-137.2 -1.72,-3.96 -5.08,-11.96 -6.8,-16 -2.62,-7.4 -5.31,-14.73 -8,-21.98 -9.2,-27.67 -11.81,-56.83 -10.99,-85.76 0.3,-56.53 -6.28,-114.33 7.18,-169.81 0.75,-4.19 2.24,-12.71 2.99,-16.9 2.24,-3.67 6.65,-11.07 8.82,-14.73 10.92,25.43 21.91,52.72 43.81,70.96 -2.99,-18.47 -7.93,-36.49 -13.91,-54.13 -0.97,-3.22 -3.07,-9.8 -4.11,-13.01 -3.96,-13.01 -7.33,-26.09 -11.44,-38.88 -1.72,-30.66 -4.86,-62.06 2.92,-92.12l-2.24 -1.5c2.99,-13.01 5.39,-26.17 7.93,-39.26 6.58,-17.8 7.33,-37.68 -1.72,-54.66 0.38,-16.22 -6.88,-36.71 8.75,-48 4.49,1.8 13.31,5.31 17.8,7.03 27.81,2.02 55.85,-0.67 83.59,2.32 25.94,5.83 45.24,27.67 56.75,50.62l0.6 -0.22c8.45,-14.13 16.9,-28.49 28.34,-40.38 15.4,-11.67 34.62,-16.07 52.64,-22.13 31.85,-7.41 64.75,-3.96 97.13,-3.07 8.97,3.14 18.09,6.2 27.29,9.05 0.07,23.18 -2.77,47.18 5.31,69.54 1.8,14.73 3.29,29.69 6.2,44.41 6.96,26.92 15.11,53.54 21.46,80.68 3.44,14.66 4.79,29.61 6.66,44.57 3.59,12.26 5.38,24.97 7.18,37.76 -9.35,-3.74 -18.54,-7.63 -27.67,-11.44 7.63,26.39 25.5,47.7 38.66,71.41 4.19,13.16 9.35,26.02 15.18,38.66 0.82,3.51 2.47,10.62 3.29,14.2 4.11,9.94 7.93,20.04 12.04,30.13 0.82,3.44 2.46,10.47 3.36,13.91 12.49,24.15 11.14,51.81 19.14,77.16 0.6,11.67 0.9,23.41 1.2,35.22 -24.45,-8 -42.92,-25.87 -60.27,-43.89 3.29,9.87 6.73,19.89 9.87,29.98 6.2,12.71 12.56,25.35 19.44,37.83 0.6,3.52 1.65,10.47 2.17,13.98 4.04,7.33 8.07,14.73 12.11,22.2 2.39,7.7 4.86,15.48 7.55,23.26 0.9,3.51 2.69,10.47 3.59,13.91 2.62,7.48 5.24,14.96 7.78,22.58 8,16.15 16.15,32.3 23.18,48.98l6.13 0.3c-4.79,-21.61 -9.27,-43.37 -10.02,-65.5 4.04,-4.11 12.04,-12.26 16.07,-16.37 14.73,9.5 30.28,18.39 42.85,30.96 49.35,48 96.75,99.52 131.52,159.34 11.44,22.21 21.83,45.01 33.87,66.92 2.39,12.26 4.41,24.67 5.46,37.24 4.64,32.52 8.15,66.92 -2.31,98.77 -1.2,6.96 -2.32,13.98 -3.29,21.09 -18.84,48 -56.08,84.42 -96.91,114.48 14.36,-5.98 28.56,-12.34 42.4,-19.44 3.59,-0.67 10.76,-1.94 14.28,-2.62 4.04,-1.94 11.96,-5.91 16,-7.93 61.54,-32.6 109.84,-87.33 135.86,-151.86 3.21,-13.91 7.03,-27.66 10.62,-41.42 2.76,0.15 8.22,0.52 10.91,0.67 4.71,14.2 9.94,28.34 16.15,42.09 0.45,4.41 1.35,13.24 1.8,17.65l4.93 -0.07c2.39,-9.35 5.01,-18.55 7.85,-27.67 -1.49,-1.8 -4.41,-5.38 -5.83,-7.18 11.59,-22.95 6.95,-49.13 3.52,-73.43 -2.54,-12.71 -4.94,-25.35 -7.78,-37.83 -2.99,-7.63 -6.06,-15.1 -9.05,-22.51 -0.75,-3.44 -2.17,-10.39 -2.84,-13.91 -6.36,-15.48 -12.56,-30.96 -19.52,-46.13 -0.6,-3.44 -1.87,-10.39 -2.47,-13.83 -5.68,-7.7 -11.14,-15.25 -16.37,-23.03 -19.29,-36.27 -39.41,-72.16 -59.22,-108.12 5.54,-5.01 12.26,-10.62 19.74,-4.71 30.43,12.33 48.68,41.2 74.25,60.41 -22.8,-44.41 -60.79,-78.06 -93.99,-114.55 -17.35,-24.6 -27.81,-53.31 -41.72,-79.85 -0.82,-3.52 -2.54,-10.47 -3.36,-13.91 -3.29,-9.94 -5.68,-19.97 -8.67,-29.83 -5.54,-32.23 -7.78,-64.98 -14.21,-97.06 -7.85,-23.7 -5.16,-48.9 -4.04,-73.35 19.07,20.26 38.51,40.38 61.09,56.97 -8.15,-29.98 -32.07,-50.32 -49.87,-74.24 -5.76,-12.71 -11.81,-25.2 -18.17,-37.54 -5.01,-20.19 -9.28,-40.53 -14.66,-60.57 -3.81,-36.64 -10.62,-72.98 -10.84,-109.91 -8.52,-18.02 -5.83,-38.36 -6.35,-57.57 0.67,-24.08 -2.84,-49.05 5.53,-72.23 0.82,-3.59 2.47,-10.69 3.22,-14.28 11.81,-15.33 25.5,-31.18 13.01,-50.84 -5.46,5.83 -10.91,11.74 -16.3,17.72 -4.26,-0.07 -12.71,-0.15 -16.9,-0.15 -13.98,-22.88 -27.22,-46.21 -38.58,-70.44 -1.87,-3.96 -5.68,-11.74 -7.55,-15.63 -2.24,-10.17 -4.19,-20.34 -6.58,-30.36 -2.69,-9.87 -5.16,-19.81 -8.15,-29.46 -6.96,-22.28 -9.87,-45.39 -14.36,-68.11 -2.39,-12.64 -4.86,-25.13 -8.07,-37.46 -5.38,-43.22 -12.93,-86.36 -9.65,-130.11 11.44,-0.22 22.88,-0.3 34.4,-0.3 20.93,19.89 36.26,44.71 57.2,64.6 -7.48,-24.75 -15.78,-50.32 -32.97,-70.13 -42.4,-59.3 -119.19,-86.74 -150.52,-155.07 -7.1,-12.64 -14.73,-24.98 -22.06,-37.39 -7.33,-12.64 -15.03,-24.9 -22.28,-37.46 -19.52,-32 -41.2,-62.66 -56.91,-96.76 -0.59,-3.37 -1.87,-10.09 -2.54,-13.39 -5.91,-10.24 -11.37,-20.63 -16.45,-31.26 -4.86,-7.63 -9.65,-15.18 -14.21,-22.88 -23.7,-42.17 -51.52,-81.87 -81.13,-120.01 5.01,21.31 12.33,42.09 22.58,61.54 0.15,9.35 0.22,18.69 0.3,28.11 -40.46,-14.06 -67.97,-47.85 -101.47,-72.45 -51.29,-47.18 -100.79,-97.87 -135.71,-158.74 -4.78,-15.03 -9.49,-30.06 -14.58,-45.02 -1.05,-3.44 -3.22,-10.39 -4.26,-13.91 -3.89,-15.33 -6.5,-30.95 -10.46,-46.28 -1.72,-9.72 -3.44,-19.44 -5.16,-29.16 1.05,-6.13 2.09,-12.19 3.14,-18.32 -3.36,4.49 -10.09,13.54 -13.54,18.02 -1.94,10.99 -4.33,22.06 -7.25,32.9 0.9,0.6 2.69,1.79 3.59,2.39 -9.35,31.93 -3.67,65.5 -6.43,98.25 -20.19,39.18 -12.56,84.19 -13.98,126.51 1.5,1.87 4.41,5.54 5.91,7.41 -8.37,39.78 0.6,82.7 -10.77,122.62 -0.97,3.44 -2.99,10.39 -4.04,13.83 -6.35,12.34 -12.56,24.68 -18.69,37.16zm205.32 276.66c5.23,-18.24 9.2,-36.86 10.84,-55.78 3.22,0 9.8,0 13.09,0 0.22,4.56 0.6,13.76 0.82,18.39 23.78,35.74 43.14,74.17 61.24,113.06 3.96,7.48 8.07,14.88 12.19,22.35 0.45,3.59 1.2,10.77 1.65,14.36 4.19,7.33 8.45,14.58 12.64,21.98 3.29,17.65 7.48,35.07 10.84,52.79 1.94,4.48 5.91,13.46 7.85,17.94 -19.07,-8.75 -38.21,-17.5 -58.32,-23.7 18.69,34.54 48.45,61.46 68.49,95.26 4.64,12.78 9.65,25.49 14.88,38.13 6.66,17.57 14.43,34.77 22.58,51.74 3.29,9.28 6.8,18.47 10.47,27.74 -36.71,0.9 -72.76,-4.93 -108.87,-10.46 -16.45,-6.65 -32.9,-13.31 -48.45,-21.69 -5.83,7.7 -11.59,15.4 -17.27,23.11 -3.96,0.37 -11.81,1.05 -15.78,1.35 -37.54,17.35 -77.91,28.56 -113.35,50.32 -5.08,0.22 -15.25,0.75 -20.26,1.05 18.84,-47.41 33.43,-97.2 63.56,-139 6.36,-10.47 13.01,-20.79 20.04,-30.88 0.22,-7.1 0.44,-14.2 0.74,-21.23 7.33,-7.33 14.73,-14.66 22.13,-21.91 0.15,-11.37 0.37,-22.73 0.75,-33.95 -10.32,7.33 -21.31,7.55 -31.85,0.67 1.65,-22.28 5.54,-44.34 13.54,-65.2 5.01,-14.65 10.09,-29.39 15.55,-43.89 9.42,-27.74 17.72,-56 30.28,-82.55zm-1872.96 -177.66c20.49,15.63 11.14,43.81 12.78,65.72 -13.83,27.74 -32.22,54.36 -63.56,63.56 -17.94,0.37 -36.26,0.97 -53.61,-4.49 -3.22,-1.27 -9.8,-3.74 -13.01,-4.93 -22.73,-6.13 -45.54,-11.59 -68.12,-17.94 -10.17,-2.69 -20.41,-5.09 -30.43,-8 -15.48,-1.72 -32.52,-0.9 -44.26,-12.86 10.32,-3.22 20.56,-6.43 30.88,-9.65 3.52,-0.82 10.47,-2.39 13.98,-3.22 14.95,-8.07 30.13,-15.7 45.54,-22.95 15.18,-8 30.13,-16.37 44.56,-25.65 10.32,-4.79 20.49,-9.8 30.66,-14.96 7.33,-2.69 14.65,-5.31 21.91,-8.07 3.44,-1.05 10.24,-3.29 13.61,-4.41 19.37,-7.85 43.59,-8.07 59.07,7.85z"/>
  </g>
 </g>
</svg>
